<svg width="23" height="25" viewBox="0 0 23 25" fill="none" xmlns="http://www.w3.org/2000/svg">
<g clip-path="url(#clip0_2_61)">
<path d="M13.2852 7.58929V13.8393C13.2852 13.9695 13.2433 14.0765 13.1596 14.1602C13.0759 14.2439 12.9689 14.2857 12.8387 14.2857H8.37444C8.24423 14.2857 8.13728 14.2439 8.05357 14.1602C7.96987 14.0765 7.92801 13.9695 7.92801 13.8393V12.9464C7.92801 12.8162 7.96987 12.7093 8.05357 12.6256C8.13728 12.5419 8.24423 12.5 8.37444 12.5H11.4994V7.58929C11.4994 7.45909 11.5413 7.35213 11.625 7.26842C11.7087 7.18472 11.8157 7.14287 11.9459 7.14287H12.8387C12.9689 7.14287 13.0759 7.18472 13.1596 7.26842C13.2433 7.35213 13.2852 7.45909 13.2852 7.58929ZM18.0703 16.3086C18.0703 16.3086 18.24 16.018 18.5795 15.4367C18.919 14.8554 19.0887 13.8765 19.0887 12.5C19.0887 11.1235 18.7493 9.85399 18.0703 8.69141C17.3914 7.52884 16.4706 6.60808 15.308 5.92914C14.1455 5.25019 12.8759 4.91072 11.4994 4.91072C10.123 4.91072 8.85342 5.25019 7.69085 5.92914C6.52827 6.60808 5.60751 7.52884 4.92857 8.69141C4.24963 9.85399 3.91016 11.1235 3.91016 12.5C3.91016 13.8765 4.24963 15.146 4.92857 16.3086C5.60751 17.4712 6.52827 18.3919 7.69085 19.0709C8.85342 19.7498 10.123 20.0893 11.4994 20.0893C12.8759 20.0893 14.1455 19.7498 15.308 19.0709C16.4706 18.3919 17.3914 17.4712 18.0703 16.3086ZM20.7768 7.12194C20.7768 7.12194 21.0163 7.53233 21.4953 8.35311C21.9742 9.17388 22.2137 10.5562 22.2137 12.5C22.2137 14.4438 21.7347 16.2365 20.7768 17.8781C19.8188 19.5196 18.5191 20.8194 16.8775 21.7774C15.236 22.7353 13.4433 23.2143 11.4994 23.2143C9.55562 23.2143 7.76293 22.7353 6.12137 21.7774C4.47982 20.8194 3.18006 19.5196 2.2221 17.8781C1.26414 16.2365 0.785156 14.4438 0.785156 12.5C0.785156 10.5562 1.26414 8.76349 2.2221 7.12194C3.18006 5.48038 4.47982 4.18063 6.12137 3.22267C7.76293 2.2647 9.55562 1.78572 11.4994 1.78572C13.4433 1.78572 15.236 2.2647 16.8775 3.22267C18.5191 4.18063 19.8188 5.48038 20.7768 7.12194Z" fill="white"/>
</g>
<defs>
<clipPath id="clip0_2_61">
<rect width="21.44" height="25" fill="white" transform="matrix(1 0 0 -1 0.779297 25)"/>
</clipPath>
</defs>
</svg>
