<svg width="15" height="25" viewBox="0 0 15 25" fill="none" xmlns="http://www.w3.org/2000/svg">
<g clip-path="url(#clip0_2_43)">
<path d="M10.0156 11.4537C10.0156 11.4537 10.19 11.2793 10.5388 10.9305C10.8876 10.5818 11.0619 9.91444 11.0619 8.92858C11.0619 7.94272 10.7132 7.10101 10.0156 6.40347C9.31808 5.70592 8.47638 5.35715 7.49051 5.35715C6.50465 5.35715 5.66295 5.70592 4.9654 6.40347C4.26786 7.10101 3.91908 7.94272 3.91908 8.92858C3.91908 9.91444 4.26786 10.7561 4.9654 11.4537C5.66295 12.1512 6.50465 12.5 7.49051 12.5C8.47638 12.5 9.31808 12.1512 10.0156 11.4537ZM14.6334 8.92858C14.6334 9.94234 14.4799 10.7747 14.173 11.4258L9.09487 22.2238C8.94606 22.5307 8.72517 22.7725 8.4322 22.9492C8.13923 23.1259 7.82533 23.2143 7.49051 23.2143C7.15569 23.2143 6.8418 23.1259 6.54883 22.9492C6.25586 22.7725 6.03962 22.5307 5.90011 22.2238L0.808036 11.4258C0.501116 10.7747 0.347656 9.94234 0.347656 8.92858C0.347656 6.95685 1.0452 5.27345 2.44029 3.87836C3.83538 2.48327 5.51879 1.78572 7.49051 1.78572C9.46224 1.78572 11.1456 2.48327 12.5407 3.87836C13.9358 5.27345 14.6334 6.95685 14.6334 8.92858Z" fill="white"/>
</g>
<defs>
<clipPath id="clip0_2_43">
<rect width="14.3" height="25" fill="white" transform="matrix(1 0 0 -1 0.339844 25)"/>
</clipPath>
</defs>
</svg>
