<svg width="25" height="25" viewBox="0 0 25 25" fill="none" xmlns="http://www.w3.org/2000/svg">
<g clip-path="url(#clip0_2_55)">
<path d="M25 9.90514V20.9822C25 21.596 24.7814 22.1215 24.3443 22.5586C23.9072 22.9957 23.3817 23.2143 22.7679 23.2143H2.23214C1.6183 23.2143 1.09282 22.9957 0.655692 22.5586C0.218564 22.1215 0 21.596 0 20.9822V9.90514C0.409226 10.3609 0.878906 10.7654 1.40904 11.1189C4.77586 13.4068 7.08705 15.0112 8.34263 15.9319C8.87277 16.3226 9.30292 16.6271 9.63309 16.8457C9.96326 17.0643 10.4027 17.2875 10.9515 17.5154C11.5002 17.7432 12.0117 17.8572 12.486 17.8572H12.5H12.514C12.9883 17.8572 13.4998 17.7432 14.0485 17.5154C14.5973 17.2875 15.0367 17.0643 15.3669 16.8457C15.6971 16.6271 16.1272 16.3226 16.6574 15.9319C18.2385 14.788 20.5543 13.1836 23.6049 11.1189C24.135 10.7561 24.6001 10.3516 25 9.90514ZM25 5.80358C25 6.53833 24.7721 7.24052 24.3164 7.91016C23.8607 8.57981 23.2933 9.15179 22.6144 9.62613C19.1174 12.0536 16.941 13.5649 16.0854 14.1602C15.9924 14.2253 15.7947 14.3671 15.4925 14.5857C15.1902 14.8042 14.9391 14.9809 14.7391 15.1158C14.5392 15.2507 14.2973 15.4018 14.0137 15.5692C13.73 15.7366 13.4626 15.8622 13.2115 15.9459C12.9604 16.0296 12.7279 16.0714 12.514 16.0714H12.5H12.486C12.2721 16.0714 12.0396 16.0296 11.7885 15.9459C11.5374 15.8622 11.27 15.7366 10.9863 15.5692C10.7027 15.4018 10.4608 15.2507 10.2609 15.1158C10.0609 14.9809 9.8098 14.8042 9.50753 14.5857C9.20526 14.3671 9.00763 14.2253 8.91462 14.1602C8.06827 13.5649 6.84989 12.7162 5.25949 11.6141C3.66908 10.512 2.71577 9.84934 2.39955 9.62613C1.82292 9.2355 1.27883 8.69839 0.767299 8.0148C0.255766 7.3312 0 6.69644 0 6.1105C0 5.38505 0.192987 4.78052 0.578962 4.29688C0.964937 3.81325 1.516 3.57144 2.23214 3.57144H22.7679C23.3724 3.57144 23.8956 3.79 24.3373 4.22713C24.7791 4.66426 25 5.18974 25 5.80358Z" fill="white"/>
</g>
<defs>
<clipPath id="clip0_2_55">
<rect width="25" height="25" fill="white" transform="matrix(1 0 0 -1 0 25)"/>
</clipPath>
</defs>
</svg>
