<svg width="21" height="21" viewBox="0 0 21 21" fill="none" xmlns="http://www.w3.org/2000/svg">
<path d="M20.3206 16.2991C20.3206 16.5502 20.2741 16.8781 20.1811 17.2827C20.0881 17.6872 19.9904 18.0058 19.8881 18.2383C19.6928 18.7033 19.1255 19.1963 18.1861 19.7171C17.3118 20.1914 16.4469 20.4286 15.5912 20.4286C15.3401 20.4286 15.0937 20.4123 14.8518 20.3798C14.61 20.3472 14.3426 20.2891 14.0497 20.2054C13.7567 20.1217 13.5381 20.0542 13.394 20.0031C13.2498 19.9519 12.9917 19.8566 12.6197 19.7171C12.2477 19.5776 12.0198 19.4939 11.9361 19.466C11.0246 19.1405 10.2108 18.7545 9.4947 18.3081C8.31352 17.5733 7.08584 16.5688 5.81166 15.2947C4.53748 14.0205 3.53302 12.7928 2.79827 11.6116C2.35184 10.8955 1.96587 10.0817 1.64035 9.17022C1.61244 9.08651 1.52874 8.85865 1.38923 8.48662C1.24972 8.1146 1.15439 7.85651 1.10324 7.71235C1.05208 7.56819 0.984654 7.34963 0.900949 7.05666C0.817243 6.76369 0.759115 6.4963 0.726562 6.25448C0.69401 6.01267 0.677734 5.7662 0.677734 5.51508C0.677734 4.65943 0.9149 3.79447 1.38923 2.92022C1.91006 1.98086 2.40299 1.41352 2.86802 1.21821C3.10054 1.1159 3.41908 1.01825 3.82366 0.925241C4.22824 0.832235 4.55608 0.785732 4.8072 0.785732C4.93741 0.785732 5.03506 0.799683 5.10017 0.827585C5.26758 0.883389 5.51404 1.23681 5.83956 1.88785C5.94187 2.06456 6.08138 2.31568 6.25809 2.6412C6.4348 2.96672 6.59756 3.26202 6.74637 3.52708C6.89518 3.79215 7.03934 4.04094 7.17885 4.27345C7.20675 4.31066 7.28813 4.42691 7.42299 4.62223C7.55785 4.81754 7.65783 4.98263 7.72294 5.11748C7.78804 5.25234 7.82059 5.38488 7.82059 5.51508C7.82059 5.7011 7.68806 5.93361 7.42299 6.21263C7.15792 6.49165 6.86961 6.74741 6.55804 6.97993C6.24647 7.21244 5.95815 7.45891 5.69308 7.71933C5.42801 7.97974 5.29548 8.19366 5.29548 8.36107C5.29548 8.44477 5.31873 8.5494 5.36523 8.67496C5.41174 8.80052 5.45126 8.89585 5.48382 8.96095C5.51637 9.02606 5.58147 9.13767 5.67913 9.29578C5.77679 9.45389 5.83026 9.54224 5.83956 9.56084C6.54641 10.835 7.35556 11.9278 8.26702 12.8393C9.17848 13.7508 10.2713 14.5599 11.5455 15.2668C11.5641 15.2761 11.6524 15.3295 11.8105 15.4272C11.9687 15.5248 12.0803 15.59 12.1454 15.6225C12.2105 15.6551 12.3058 15.6946 12.4314 15.7411C12.5569 15.7876 12.6616 15.8108 12.7453 15.8108C12.9127 15.8108 13.1266 15.6783 13.387 15.4132C13.6474 15.1482 13.8939 14.8599 14.1264 14.5483C14.3589 14.2367 14.6147 13.9484 14.8937 13.6833C15.1727 13.4183 15.4052 13.2857 15.5912 13.2857C15.7214 13.2857 15.854 13.3183 15.9888 13.3834C16.1237 13.4485 16.2888 13.5485 16.4841 13.6833C16.6794 13.8182 16.7957 13.8996 16.8329 13.9275C17.0654 14.067 17.3142 14.2111 17.5792 14.36C17.8443 14.5088 18.1396 14.6715 18.4651 14.8482C18.7906 15.0249 19.0418 15.1645 19.2185 15.2668C19.8695 15.5923 20.2229 15.8387 20.2787 16.0062C20.3066 16.0713 20.3206 16.1689 20.3206 16.2991Z" fill="white"/>
</svg>
