<svg width="13" height="14" viewBox="0 0 13 14" fill="none" xmlns="http://www.w3.org/2000/svg">
<path fill-rule="evenodd" clip-rule="evenodd" d="M0.5 0.5H12.5C12.6326 0.5 12.7598 0.552678 12.8536 0.646446C12.9473 0.740214 13 0.867392 13 1C13 1.13261 12.9473 1.25979 12.8536 1.35355C12.7598 1.44732 12.6326 1.5 12.5 1.5H0.5C0.367392 1.5 0.240214 1.44732 0.146446 1.35355C0.052678 1.25979 0 1.13261 0 1C0 0.867392 0.052678 0.740214 0.146446 0.646446C0.240214 0.552678 0.367392 0.5 0.5 0.5ZM0.5 3.5H12.5C12.6326 3.5 12.7598 3.55268 12.8536 3.64645C12.9473 3.74021 13 3.86739 13 4C13 4.13261 12.9473 4.25979 12.8536 4.35355C12.7598 4.44732 12.6326 4.5 12.5 4.5H0.5C0.367392 4.5 0.240214 4.44732 0.146446 4.35355C0.052678 4.25979 0 4.13261 0 4C0 3.86739 0.052678 3.74021 0.146446 3.64645C0.240214 3.55268 0.367392 3.5 0.5 3.5ZM0.5 6.5H12.5C12.6326 6.5 12.7598 6.55268 12.8536 6.64645C12.9473 6.74021 13 6.86739 13 7C13 7.13261 12.9473 7.25979 12.8536 7.35355C12.7598 7.44732 12.6326 7.5 12.5 7.5H0.5C0.367392 7.5 0.240214 7.44732 0.146446 7.35355C0.052678 7.25979 0 7.13261 0 7C0 6.86739 0.052678 6.74021 0.146446 6.64645C0.240214 6.55268 0.367392 6.5 0.5 6.5ZM0.5 9.5H12.5C12.6326 9.5 12.7598 9.55268 12.8536 9.64645C12.9473 9.74021 13 9.86739 13 10C13 10.1326 12.9473 10.2598 12.8536 10.3536C12.7598 10.4473 12.6326 10.5 12.5 10.5H0.5C0.367392 10.5 0.240214 10.4473 0.146446 10.3536C0.052678 10.2598 0 10.1326 0 10C0 9.86739 0.052678 9.74021 0.146446 9.64645C0.240214 9.55268 0.367392 9.5 0.5 9.5ZM0.5 12.5H12.5C12.6326 12.5 12.7598 12.5527 12.8536 12.6464C12.9473 12.7402 13 12.8674 13 13C13 13.1326 12.9473 13.2598 12.8536 13.3536C12.7598 13.4473 12.6326 13.5 12.5 13.5H0.5C0.367392 13.5 0.240214 13.4473 0.146446 13.3536C0.052678 13.2598 0 13.1326 0 13C0 12.8674 0.052678 12.7402 0.146446 12.6464C0.240214 12.5527 0.367392 12.5 0.5 12.5Z" fill="currentColor"/>
</svg>
