<svg width="13" height="14" viewBox="0 0 13 14" fill="none" xmlns="http://www.w3.org/2000/svg">
<path fill-rule="evenodd" clip-rule="evenodd" d="M0.75 5.5H2.25C2.44891 5.5 2.63968 5.57902 2.78033 5.71967C2.92098 5.86032 3 6.05109 3 6.25V7.75C3 7.94891 2.92098 8.13968 2.78033 8.28033C2.63968 8.42098 2.44891 8.5 2.25 8.5H0.75C0.551088 8.5 0.360322 8.42098 0.21967 8.28033C0.0790176 8.13968 0 7.94891 0 7.75L0 6.25C0 6.05109 0.0790176 5.86032 0.21967 5.71967C0.360322 5.57902 0.551088 5.5 0.75 5.5ZM0.75 10.5H2.25C2.44891 10.5 2.63968 10.579 2.78033 10.7197C2.92098 10.8603 3 11.0511 3 11.25V12.75C3 12.9489 2.92098 13.1397 2.78033 13.2803C2.63968 13.421 2.44891 13.5 2.25 13.5H0.75C0.551088 13.5 0.360322 13.421 0.21967 13.2803C0.0790176 13.1397 0 12.9489 0 12.75L0 11.25C0 11.0511 0.0790176 10.8603 0.21967 10.7197C0.360322 10.579 0.551088 10.5 0.75 10.5ZM0.75 0.5H2.25C2.44891 0.5 2.63968 0.579017 2.78033 0.719669C2.92098 0.860322 3 1.05109 3 1.25V2.75C3 2.94891 2.92098 3.13968 2.78033 3.28033C2.63968 3.42098 2.44891 3.5 2.25 3.5H0.75C0.551088 3.5 0.360322 3.42098 0.21967 3.28033C0.0790176 3.13968 0 2.94891 0 2.75L0 1.25C0 1.05109 0.0790176 0.860322 0.21967 0.719669C0.360322 0.579017 0.551088 0.5 0.75 0.5ZM5.75 5.5H7.25C7.44891 5.5 7.63968 5.57902 7.78033 5.71967C7.92098 5.86032 8 6.05109 8 6.25V7.75C8 7.94891 7.92098 8.13968 7.78033 8.28033C7.63968 8.42098 7.44891 8.5 7.25 8.5H5.75C5.55109 8.5 5.36032 8.42098 5.21967 8.28033C5.07902 8.13968 5 7.94891 5 7.75V6.25C5 6.05109 5.07902 5.86032 5.21967 5.71967C5.36032 5.57902 5.55109 5.5 5.75 5.5ZM5.75 10.5H7.25C7.44891 10.5 7.63968 10.579 7.78033 10.7197C7.92098 10.8603 8 11.0511 8 11.25V12.75C8 12.9489 7.92098 13.1397 7.78033 13.2803C7.63968 13.421 7.44891 13.5 7.25 13.5H5.75C5.55109 13.5 5.36032 13.421 5.21967 13.2803C5.07902 13.1397 5 12.9489 5 12.75V11.25C5 11.0511 5.07902 10.8603 5.21967 10.7197C5.36032 10.579 5.55109 10.5 5.75 10.5ZM5.75 0.5H7.25C7.44891 0.5 7.63968 0.579017 7.78033 0.719669C7.92098 0.860322 8 1.05109 8 1.25V2.75C8 2.94891 7.92098 3.13968 7.78033 3.28033C7.63968 3.42098 7.44891 3.5 7.25 3.5H5.75C5.55109 3.5 5.36032 3.42098 5.21967 3.28033C5.07902 3.13968 5 2.94891 5 2.75V1.25C5 1.05109 5.07902 0.860322 5.21967 0.719669C5.36032 0.579017 5.55109 0.5 5.75 0.5ZM10.75 5.5H12.25C12.4489 5.5 12.6397 5.57902 12.7803 5.71967C12.921 5.86032 13 6.05109 13 6.25V7.75C13 7.94891 12.921 8.13968 12.7803 8.28033C12.6397 8.42098 12.4489 8.5 12.25 8.5H10.75C10.5511 8.5 10.3603 8.42098 10.2197 8.28033C10.079 8.13968 10 7.94891 10 7.75V6.25C10 6.05109 10.079 5.86032 10.2197 5.71967C10.3603 5.57902 10.5511 5.5 10.75 5.5ZM10.75 10.5H12.25C12.4489 10.5 12.6397 10.579 12.7803 10.7197C12.921 10.8603 13 11.0511 13 11.25V12.75C13 12.9489 12.921 13.1397 12.7803 13.2803C12.6397 13.421 12.4489 13.5 12.25 13.5H10.75C10.5511 13.5 10.3603 13.421 10.2197 13.2803C10.079 13.1397 10 12.9489 10 12.75V11.25C10 11.0511 10.079 10.8603 10.2197 10.7197C10.3603 10.579 10.5511 10.5 10.75 10.5ZM10.75 0.5H12.25C12.4489 0.5 12.6397 0.579017 12.7803 0.719669C12.921 0.860322 13 1.05109 13 1.25V2.75C13 2.94891 12.921 3.13968 12.7803 3.28033C12.6397 3.42098 12.4489 3.5 12.25 3.5H10.75C10.5511 3.5 10.3603 3.42098 10.2197 3.28033C10.079 3.13968 10 2.94891 10 2.75V1.25C10 1.05109 10.079 0.860322 10.2197 0.719669C10.3603 0.579017 10.5511 0.5 10.75 0.5Z" fill="currentColor"/>
</svg>
