<svg width="13" height="14" viewBox="0 0 13 14" fill="none" xmlns="http://www.w3.org/2000/svg">
<path fill-rule="evenodd" clip-rule="evenodd" d="M0.5 5.5H2.5C2.63261 5.5 2.75979 5.55268 2.85355 5.64645C2.94732 5.74021 3 5.86739 3 6V8C3 8.13261 2.94732 8.25979 2.85355 8.35355C2.75979 8.44732 2.63261 8.5 2.5 8.5H0.5C0.367392 8.5 0.240214 8.44732 0.146446 8.35355C0.052678 8.25979 0 8.13261 0 8V6C0 5.86739 0.052678 5.74021 0.146446 5.64645C0.240214 5.55268 0.367392 5.5 0.5 5.5ZM0.5 10.5H2.5C2.63261 10.5 2.75979 10.5527 2.85355 10.6464C2.94732 10.7402 3 10.8674 3 11V13C3 13.1326 2.94732 13.2598 2.85355 13.3536C2.75979 13.4473 2.63261 13.5 2.5 13.5H0.5C0.367392 13.5 0.240214 13.4473 0.146446 13.3536C0.052678 13.2598 0 13.1326 0 13V11C0 10.8674 0.052678 10.7402 0.146446 10.6464C0.240214 10.5527 0.367392 10.5 0.5 10.5ZM0.5 0.5H2.5C2.63261 0.5 2.75979 0.552678 2.85355 0.646447C2.94732 0.740215 3 0.867392 3 1V3C3 3.13261 2.94732 3.25979 2.85355 3.35355C2.75979 3.44732 2.63261 3.5 2.5 3.5H0.5C0.367392 3.5 0.240214 3.44732 0.146446 3.35355C0.052678 3.25979 0 3.13261 0 3V1C0 0.867392 0.052678 0.740215 0.146446 0.646447C0.240214 0.552678 0.367392 0.5 0.5 0.5ZM5.5 5.5H12.5C12.6326 5.5 12.7598 5.55268 12.8536 5.64645C12.9473 5.74021 13 5.86739 13 6V8C13 8.13261 12.9473 8.25979 12.8536 8.35355C12.7598 8.44732 12.6326 8.5 12.5 8.5H5.5C5.36739 8.5 5.24021 8.44732 5.14645 8.35355C5.05268 8.25979 5 8.13261 5 8V6C5 5.86739 5.05268 5.74021 5.14645 5.64645C5.24021 5.55268 5.36739 5.5 5.5 5.5ZM5.5 10.5H12.5C12.6326 10.5 12.7598 10.5527 12.8536 10.6464C12.9473 10.7402 13 10.8674 13 11V13C13 13.1326 12.9473 13.2598 12.8536 13.3536C12.7598 13.4473 12.6326 13.5 12.5 13.5H5.5C5.36739 13.5 5.24021 13.4473 5.14645 13.3536C5.05268 13.2598 5 13.1326 5 13V11C5 10.8674 5.05268 10.7402 5.14645 10.6464C5.24021 10.5527 5.36739 10.5 5.5 10.5ZM5.5 0.5H12.5C12.6326 0.5 12.7598 0.552678 12.8536 0.646447C12.9473 0.740215 13 0.867392 13 1V3C13 3.13261 12.9473 3.25979 12.8536 3.35355C12.7598 3.44732 12.6326 3.5 12.5 3.5H5.5C5.36739 3.5 5.24021 3.44732 5.14645 3.35355C5.05268 3.25979 5 3.13261 5 3V1C5 0.867392 5.05268 0.740215 5.14645 0.646447C5.24021 0.552678 5.36739 0.5 5.5 0.5Z" fill="currentColor"/>
</svg>
