<svg viewBox="0 0 4 5" fill="none" xmlns="http://www.w3.org/2000/svg">
<path d="M3.18309 2.18304C3.21285 2.2128 3.22773 2.24703 3.22773 2.28572C3.22773 2.32441 3.21285 2.35864 3.18309 2.3884L1.10273 4.46875C1.07297 4.49852 1.03874 4.5134 1.00005 4.5134C0.961362 4.5134 0.927136 4.49852 0.897374 4.46875L0.674159 4.24554C0.644398 4.21578 0.629517 4.18155 0.629517 4.14286C0.629517 4.10417 0.644398 4.06994 0.674159 4.04018L2.42862 2.28572L0.674159 0.531254C0.644398 0.501493 0.629517 0.467266 0.629517 0.428576C0.629517 0.389885 0.644398 0.355659 0.674159 0.325897L0.897374 0.102683C0.927136 0.0729208 0.961362 0.0580397 1.00005 0.0580397C1.03874 0.0580397 1.07297 0.0729208 1.10273 0.102683L3.18309 2.18304Z" fill="currentColor"/>
</svg>
