<svg viewBox="0 0 28 29" fill="none" xmlns="http://www.w3.org/2000/svg">
<path fill-rule="evenodd" clip-rule="evenodd" d="M25.99 8.244C26.5204 8.244 27.0291 8.45471 27.4042 8.82979C27.7793 9.20486 27.99 9.71357 27.99 10.244V21.734C27.99 22.2644 27.7793 22.7731 27.4042 23.1482C27.0291 23.5233 26.5204 23.734 25.99 23.734H24.946V28.896L20.194 23.733H12.691C12.1606 23.733 11.6519 23.5223 11.2768 23.1472C10.9017 22.7721 10.691 22.2634 10.691 21.733V19.861H20.764C21.5596 19.861 22.3227 19.5449 22.8853 18.9823C23.4479 18.4197 23.764 17.6566 23.764 16.861V8.244H25.99ZM19.381 0.5C19.9114 0.5 20.4201 0.710714 20.7952 1.08579C21.1703 1.46086 21.381 1.96957 21.381 2.5V15.28C21.381 15.5426 21.3293 15.8027 21.2288 16.0454C21.1283 16.288 20.9809 16.5085 20.7952 16.6942C20.6095 16.8799 20.389 17.0273 20.1464 17.1278C19.9037 17.2283 19.6436 17.28 19.381 17.28H10.691L4.751 23.733V17.28H2C1.46957 17.28 0.960859 17.0693 0.585786 16.6942C0.210714 16.3191 0 15.8104 0 15.28V2.5C0 1.96957 0.210714 1.46086 0.585786 1.08579C0.960859 0.710714 1.46957 0.5 2 0.5L19.381 0.5Z" fill="currentColor"/>
</svg>
