<svg viewBox="0 0 20 20" fill="none" xmlns="http://www.w3.org/2000/svg">
  <path fill-rule="evenodd" clip-rule="evenodd" d="M17.5298 9.78003H13.5298C13.2646 9.78003 13.0102 9.67467 12.8227 9.48714C12.6351 9.2996 12.5298 9.04525 12.5298 8.78003V8.74903C12.5298 8.48381 12.6351 8.22946 12.8227 8.04192C13.0102 7.85439 13.2646 7.74903 13.5298 7.74903H15.0408C14.5863 6.80534 13.8752 6.00872 12.989 5.45039C12.1028 4.89206 11.0772 4.59458 10.0298 4.59203C8.53443 4.61186 7.10704 5.2198 6.0566 6.28426C5.00617 7.34872 4.4172 8.78404 4.4172 10.2795C4.4172 11.775 5.00617 13.2103 6.0566 14.2748C7.10704 15.3393 8.53443 15.9472 10.0298 15.967C11.0767 15.9621 12.1013 15.6637 12.9872 15.1059C13.8731 14.548 14.5849 13.753 15.0418 12.811H16.9938C16.4176 14.4697 15.2696 15.8689 13.7556 16.7582C12.2416 17.6474 10.4604 17.9685 8.73115 17.6639C7.00191 17.3593 5.43762 16.449 4.31851 15.096C3.19941 13.743 2.59862 12.0357 2.62379 10.28C2.61155 8.30344 3.38489 6.40292 4.77374 4.99644C6.16258 3.58997 8.0532 2.79272 10.0298 2.78003C11.376 2.78587 12.6947 3.16219 13.8412 3.86775C14.9877 4.57331 15.9179 5.58088 16.5298 6.78003V4.71703C16.5298 4.45181 16.6351 4.19746 16.8227 4.00992C17.0102 3.82239 17.2646 3.71703 17.5298 3.71703H17.5628C17.8186 3.71703 18.0639 3.81836 18.2451 3.99884C18.4264 4.17932 18.5287 4.42426 18.5298 4.68003V9.78003H17.5298Z" fill="currentColor"/>
</svg>