<svg viewBox="0 0 105 46" fill="none" xmlns="http://www.w3.org/2000/svg">
<g clip-path="url(#clip0_1_588)">
<g clip-path="url(#clip1_1_588)">
<path d="M27.5126 12.1332C27.4871 10.5686 26.8991 9.05897 25.7614 7.64267C25.3882 7.18889 24.905 6.63924 24.3247 6.01034C23.729 5.36482 23.3059 4.86375 23.0272 4.47772C22.7524 4.10575 22.5044 3.64174 22.2897 3.0972C22.2322 2.95148 22.1772 2.79298 22.1273 2.62681V1.15554H20.3825L20.4158 28.1688C17.9832 25.5829 13.4838 24.9707 9.46881 26.8049C7.11683 27.8787 5.23908 29.626 4.18196 31.7249C3.11207 33.8481 3.00597 36.0774 3.88413 38.0012C5.04095 40.5257 7.68182 42.0826 10.9465 42.167C11.0347 42.1695 11.119 42.1721 11.2098 42.1721C11.3197 42.1721 11.4386 42.1695 11.583 42.1657C13.0696 42.1171 14.5984 41.749 16.0045 41.1035C20.0463 39.2577 22.5607 35.4472 22.1261 31.831V14.512C22.4942 14.5887 22.8534 14.7229 23.196 14.9121C23.752 15.2189 24.2595 15.6292 24.7005 16.1315C24.827 16.2773 24.951 16.4332 25.0686 16.5968C24.905 16.9905 24.7593 17.3459 24.6289 17.6578L24.4244 18.1486L25.5058 18.132L25.6042 17.9607C25.6464 17.8879 25.6873 17.815 25.7282 17.7434C25.7358 17.7613 25.7435 17.7792 25.7512 17.7971C26.0017 18.3953 26.1334 18.991 26.1411 19.57C26.1474 19.9395 26.1129 20.3242 26.0362 20.7128C25.9634 21.0988 25.8586 21.4887 25.7128 21.9054C25.5607 22.3438 25.3843 22.804 25.1862 23.2757C24.974 23.787 24.7887 24.2344 24.6276 24.6204L24.4244 25.11L25.5045 25.0972L25.6029 24.9234C26.8978 22.6545 27.5395 20.6949 27.5101 19.1009C27.4922 18.0055 27.1969 16.933 26.6332 15.9078C27.2365 14.4967 27.5318 13.2274 27.5126 12.1332ZM11.8847 39.6207C11.3146 39.8188 11.8464 40.5986 11.2609 40.6855C11.5012 40.8683 11.2008 41.1188 11.0526 41.1482C11.0909 41.1891 11.1382 41.1993 11.1919 41.1827C10.949 41.4486 11.2929 41.3451 11.2686 41.5432C10.9618 41.5266 10.6793 41.6071 10.6116 41.4869C10.5489 41.3642 10.6691 41.4396 10.4901 41.2735C10.471 41.2914 10.4748 41.308 10.5004 41.3246C10.2831 41.2939 10.2025 40.8657 10.1182 40.72C10.0082 40.5308 9.89831 40.2649 9.74619 40.1167C9.52761 39.9019 9.32948 39.9364 9.0815 39.8073C8.75044 39.6348 8.37463 39.2756 8.25575 39.0071C8.09853 38.6518 8.27876 38.5201 7.91446 38.2709C8.03462 38.3527 7.38782 38.1916 7.35586 38.1788C7.136 38.0919 6.94682 38.0651 6.74486 38.0267C6.1313 37.9078 5.94595 37.5908 5.50496 37.1959C5.39119 37.2751 5.87948 37.6573 5.77211 37.7621C5.66346 37.8669 5.15344 36.9581 5.07546 36.8367C4.89267 36.5529 4.71116 36.062 4.68304 36.0505C4.45423 35.9547 4.39032 35.506 4.18196 35.3756C4.14489 35.414 4.127 35.46 4.127 35.5124C4.13723 35.474 4.14873 36.0135 4.14873 36.0135L4.10271 36.1349C4.10271 36.1349 3.96594 35.6325 3.9506 35.3692C3.94037 35.1967 3.96338 34.67 4.06309 34.422C4.23565 33.9964 4.23949 34.0347 4.53093 33.7791C4.57822 33.9325 4.88372 33.4659 4.95275 33.2946C4.96553 33.2627 4.99365 32.3168 5.05757 32.3295C5.00005 32.3449 5.1381 32.2695 5.05245 32.18L4.91057 32.0317C4.88117 31.9819 5.03839 31.6035 5.12915 31.4731C5.08824 31.4949 5.07802 31.4143 5.03967 31.4079C5.37074 30.9005 5.76316 30.3892 6.32176 30.1182C6.27446 30.1744 6.28341 30.1795 6.34988 30.131C6.33198 30.1642 6.00603 30.4531 6.00603 30.494C6.12619 30.4096 7.01713 29.7667 7.02735 29.6427C6.99284 29.6388 6.99284 29.6158 6.966 29.6337C7.04397 29.4612 7.25233 29.5698 7.31368 29.4471C6.98389 29.4151 7.71377 28.9997 7.73934 28.9805C8.0474 28.7658 8.36568 28.4846 8.75811 28.4475C8.75427 28.4603 8.84503 28.505 8.81307 28.7172C9.06233 28.6047 9.1403 28.5383 9.40362 28.4449C9.66694 28.3503 9.18249 28.8617 9.13008 28.9818C9.19015 28.9665 9.25023 28.969 9.30775 28.9895C9.29497 29.0048 9.35249 28.9128 9.38189 29.4011C9.40107 29.7168 9.30008 30.2537 9.23362 30.3713C9.02015 30.7432 8.65073 30.912 8.4526 31.3146C8.31839 31.5869 8.32861 31.9001 8.23274 32.1033C7.96303 32.6785 7.69971 31.6968 7.29834 31.4399C7.24593 31.491 7.13089 31.4309 7.13089 31.4309C7.13089 31.4309 7.01585 31.3312 6.81388 31.3798C6.75764 31.1625 7.03119 31.1229 6.72185 31.0398C6.55823 30.9963 5.78873 31.413 5.88587 31.3108C6.00092 31.2379 6.04054 31.1599 6.00603 31.0769C5.88587 31.1152 5.91655 31.1037 5.87437 31.1459C5.92678 30.9976 6.01242 30.8723 6.13258 30.7701C6.05588 30.825 6.26296 30.6486 6.20544 30.5783C6.10318 30.5937 6.04566 30.6972 6.21822 30.4403C5.98174 30.6972 5.82963 30.9976 5.62895 31.3811C5.65195 31.33 5.69925 31.3709 5.74399 31.3376C5.7197 31.5127 5.44488 31.739 5.48834 31.9831C5.57398 31.987 5.73632 32.0087 5.81046 32.0049C5.8846 32.001 6.31281 31.9128 6.39462 31.9167C6.47515 31.9205 6.69245 32.1046 6.78193 32.0701C6.7423 32.18 6.74869 32.2682 6.72057 32.3845C6.65282 32.6593 6.56974 32.373 6.43808 32.4855C6.53395 32.6082 6.91614 32.8575 6.49432 32.9406C6.72057 33.1259 6.14664 33.0262 5.93317 33.1898C5.84625 32.9802 6.10573 32.7705 6.04949 32.5366C5.90377 32.5852 6.01114 32.7526 5.87565 32.8102C5.91272 32.5341 5.82835 32.4932 5.66218 32.7066C5.63789 32.7373 5.52413 33.2614 5.49217 33.3458C5.39247 33.6142 5.2378 34.3326 5.50496 34.353C5.77211 34.3735 5.914 34.1894 6.02265 34.2201C6.1313 34.2508 6.15047 34.6125 6.26679 34.5256C6.38311 34.4387 6.21438 33.8967 6.2489 34.0398C6.20032 33.843 5.92422 33.6385 6.00603 33.3867C6.04949 33.2537 6.03032 33.1988 6.25912 33.1681C6.41124 33.1476 6.55312 33.278 6.55312 33.278C6.90848 33.2218 6.63749 33.1029 6.76531 33.0863C6.89314 33.0697 7.6358 33.4582 7.68054 33.6461C7.71761 33.8021 7.40699 34.0015 7.29579 34.1268C7.02863 34.4284 6.87396 34.3811 6.95321 34.8809C7.0363 34.8157 6.98389 34.6585 7.01457 34.5703C7.03119 34.5844 7.03886 34.5793 7.03886 34.5563C7.32774 34.5844 7.09127 35.2363 7.07337 35.2989C7.04014 35.4165 6.91487 35.5047 6.89314 35.6658C6.88035 35.7591 7.01713 35.8383 7.01713 35.846C7.00562 35.9585 6.85095 36.2704 6.86118 36.3714C6.88291 36.5695 7.25744 36.8124 7.25744 36.8124C7.25744 36.8124 7.29834 36.8993 7.27789 36.9926C7.25744 37.0859 7.13217 37.0003 7.13217 37.0003C7.13217 37.0003 6.23228 36.8111 6.35244 37.3032C6.37417 37.3901 6.58508 37.7915 6.72313 37.7877C6.94427 37.7813 6.7717 37.4349 7.01329 37.385C7.23826 37.8478 7.17307 37.7059 7.49647 37.9232C7.64858 38.0254 7.55016 38.1891 7.79814 38.2389C7.83265 38.2453 7.97454 38.1648 8.08063 38.1954C8.13304 37.9845 8.18545 37.642 8.312 37.9219C8.18034 37.3927 10.6256 38.051 10.4454 38.2415C10.5451 38.1776 11.592 37.9973 11.7479 38.1328C12.0816 38.423 11.7083 38.5713 11.7441 38.8435C11.7914 39.1669 12.0087 39.2526 11.8847 39.6207ZM20.5692 32.1493C20.3749 32.1992 20.1218 31.7198 20.1345 31.739C20.1588 31.7812 20.0067 31.4655 19.7984 31.4552C19.59 31.445 19.8853 32.8626 19.6156 32.8715C19.3459 32.8805 19.1465 32.0036 19.034 31.9652C18.9215 31.9269 19.0365 32.1404 18.9177 32.0739C18.7988 32.0061 18.3629 31.8374 18.2312 31.8553C18.0075 31.8873 17.3722 31.7594 17.3301 31.9116C17.2879 32.0637 17.6931 32.1634 17.8541 32.3206C17.9462 32.2132 18.0242 32.0726 18.0011 31.9678C18.3936 32.1813 18.4281 32.2477 18.2376 32.7578C18.1136 33.0914 17.6829 33.7548 17.5959 33.4455C17.509 33.1361 16.4366 32.3973 16.3522 32.2695C16.2691 32.1429 16.2704 31.9039 16.1988 31.73C16.0582 31.7032 15.9674 31.7633 15.8141 31.8234C15.6607 31.8834 15.304 32.1033 15.1545 31.6009C14.6585 31.7825 15.3539 32.0177 15.2503 32.2938C15.1711 32.2388 15.1839 32.3436 15.1276 32.4011C15.0714 32.4599 14.3556 31.6137 13.8686 31.592C14.013 31.9256 14.0015 31.9141 14.091 32.1928C14.2252 32.6133 13.641 31.8732 13.526 31.8886C13.2678 31.9231 13.0057 32.2477 12.9163 32.4855C12.8664 32.6184 13.0006 32.7795 12.9393 32.9278C12.8677 33.1003 12.6581 33.2128 12.6171 33.3752C13.2537 33.333 13.9516 32.6504 14.0654 32.7284C14.1792 32.8063 14.2482 33.0428 14.4821 32.8945C14.6751 32.8728 14.8528 33.1118 15.033 32.9981C15.2146 32.8843 15.01 32.6466 15.1289 32.5916C15.2631 32.5302 15.9534 32.3551 16.1055 32.3653C16.6794 32.4075 16.1438 32.4293 16.3944 32.6734C16.6794 32.9508 16.9734 33.2652 17.3071 33.4838C17.7417 33.7676 17.9948 33.4544 18.1622 33.4109C18.3297 33.3675 17.858 34.6713 17.9538 35.3079C18.0216 35.7578 18.1635 35.8089 18.1047 36.2781C18.0676 36.5746 18.0523 36.9338 17.9922 37.2457C17.9462 37.4835 17.8388 37.7123 17.6841 37.8989C17.3377 38.3182 17.2176 38.3488 16.8469 38.1251C16.6909 38.0306 16.2001 37.6011 16.1119 37.4144C15.9508 37.0706 16.1208 36.7881 15.7821 36.466C15.6517 36.3509 15.506 36.2627 15.3424 36.2039C15.3475 36.1081 15.3385 36.0147 15.3168 35.9214C15.2094 35.8511 14.794 35.7399 14.5831 35.8217C13.8673 36.0978 13.7343 36.7331 12.9086 36.1975C12.3065 35.8064 12.1071 35.3833 12.2899 34.7033C12.3295 34.5563 12.5085 33.3764 12.5967 33.3764C12.2989 33.2473 11.6738 33.1873 12.0061 32.575C12.079 32.4395 12.4165 32.442 12.4753 32.2976C12.6184 31.9473 12.2413 32.134 12.047 32.0138C12.0317 31.9384 12.8281 31.0833 12.9086 30.811C12.9546 30.7547 12.9955 30.7023 13.0786 30.6768C13.1463 30.655 13.2103 30.6282 13.2729 30.5975C13.2844 30.5937 13.2972 30.5937 13.3074 30.5886C13.3176 30.5847 13.3253 30.5783 13.3355 30.5732C13.4659 30.5259 13.6014 30.4582 13.7292 30.3789C13.7906 30.3431 13.8494 30.301 13.9031 30.2626C13.8852 30.1757 13.8494 30.0811 13.8788 30.0134C13.8852 30.0121 13.889 30.0159 13.8928 30.0159C13.8826 29.9673 13.8788 29.9213 13.8954 29.8855C13.9031 29.8843 13.9056 29.8855 13.9107 29.8855C13.9107 29.8804 13.9107 29.874 13.9159 29.8702C13.9836 29.8664 14.0411 29.8881 14.082 29.9635C14.0322 29.874 13.9107 29.782 13.9491 29.7296C13.9708 29.7257 13.99 29.7194 14.0104 29.7168C13.9747 29.6695 13.9465 29.6273 13.9683 29.5966C13.9708 29.5966 13.9747 29.5954 13.9798 29.5954C13.981 29.5903 13.9823 29.5851 13.9862 29.5813C14.1217 29.5455 14.2341 29.5263 14.3019 29.4829C14.3147 29.4739 14.3249 29.4675 14.3313 29.456C14.3287 29.4381 14.3274 29.419 14.3198 29.3985C14.1753 29.4394 14.0053 29.5839 13.719 29.7168C13.65 29.5903 13.5822 29.4688 13.5119 29.3474C13.5196 29.318 13.5337 29.2911 13.5567 29.2656C13.5452 29.249 13.5337 29.2298 13.5222 29.2106C13.5439 29.1378 13.6142 29.0841 13.6564 29.0189C13.6551 29.0176 13.6551 29.0163 13.6538 29.0112C13.3342 29.0393 13.3138 29.364 13.2588 29.6158C13.3189 29.7539 13.4787 29.6452 13.5337 29.805C13.5081 29.8408 13.4966 29.8804 13.4864 29.9213C13.4915 29.9328 13.4979 29.9392 13.5017 29.952C13.4876 29.9686 13.48 29.9903 13.4697 30.0108C13.4634 30.0734 13.4557 30.1361 13.4365 30.1974C13.3368 30.2895 13.2486 30.3585 13.1169 30.3904C13.1003 30.3713 13.0837 30.3521 13.0581 30.3368C13.0364 30.3227 13.0121 30.3125 12.9866 30.3035C12.5507 29.9188 12.8805 30.5937 12.419 30.4953C12.2835 30.4659 11.9742 30.926 12.405 29.6516C12.5353 29.2656 12.5315 29.0866 12.6785 28.9358C12.1634 28.6571 13.5285 28.1535 14.2623 28.2315C14.445 28.2506 14.8528 28.0768 14.794 28.4181C14.7595 28.6124 14.4757 28.5446 14.4514 28.6584C14.4272 28.7735 14.8298 28.9537 14.9052 28.8335C14.9806 28.7134 14.9436 28.3874 14.8413 28.2532C14.739 28.119 14.8375 28.1458 14.8745 28.0858C14.9116 28.0257 15.9777 27.9375 16.0058 27.8557C16.0339 27.7739 15.7923 27.7994 15.7923 27.7342C15.7923 27.669 16.1336 27.8109 16.2435 27.7406C16.3535 27.6703 16.1656 27.3738 16.2487 27.3687C16.4327 27.2741 16.5989 27.6831 16.6986 27.6256C16.7983 27.5681 16.4851 27.439 16.5299 27.3533C16.5657 27.2843 16.6513 27.3508 16.6564 27.3712C16.7101 27.3661 16.6973 27.2805 16.7906 27.205C16.8916 27.1232 17.1473 26.9225 17.3825 26.9174C17.6177 26.9123 18.5495 27.6077 18.4677 27.5259C18.5265 27.5655 18.7349 27.7828 18.8128 27.7777C18.8908 27.7726 18.7144 27.6678 18.832 27.5962C19.6079 27.8851 20.3672 29.015 20.3097 29.1084C20.2521 29.2017 19.5491 28.2685 19.5402 28.4334C19.5312 28.5983 20.0719 28.9166 20.2458 29.4599C20.2892 29.5596 20.541 30.1361 20.4976 30.2013C20.4541 30.2664 20.2803 29.9098 20.187 29.9622C20.0936 30.0146 20.4222 30.3879 20.4592 30.6244C20.4963 30.8583 20.3122 31.1254 20.3506 31.2814C20.449 31.6828 20.7634 32.0995 20.5692 32.1493ZM26.3801 13.8115C26.3021 14.2244 26.1883 14.6373 26.0439 15.0527C26.0043 15.1677 25.9634 15.2853 25.9186 15.408C25.787 15.2138 25.6464 15.022 25.493 14.8303C25.1287 14.388 24.6544 13.8486 24.069 13.2133C23.481 12.5729 23.0375 12.0539 22.7473 11.6513C22.4507 11.2499 22.19 10.7629 21.9663 10.1928C21.8998 10.0215 21.8359 9.83871 21.7797 9.64313V7.13904C22.3204 7.19656 22.8521 7.3589 23.3672 7.64139C23.9604 7.96479 24.4959 8.39939 24.9663 8.93626C25.4367 9.47313 25.8074 10.0573 26.0746 10.6964C26.3417 11.3343 26.4836 11.967 26.4926 12.5997C26.4977 12.9973 26.4606 13.4012 26.3801 13.8115Z" fill="#1F3C86"/>
<path d="M43.1162 4.35373C42.8503 3.94213 41.8814 2.56162 39.771 2.56162C37.3014 2.56162 35.6423 4.48666 35.6423 6.73C35.6423 9.14589 37.5009 10.9508 39.8362 10.9508C41.0314 10.9508 42.3582 10.3794 43.1546 9.10499H44.3229C43.4064 10.8178 41.7613 11.8392 39.8362 11.8392C36.9563 11.8392 34.6593 9.72878 34.6593 6.72872C34.6593 3.80791 36.9154 1.67068 39.757 1.67068C41.8009 1.67068 43.4601 2.65237 44.2833 4.35245H43.1162V4.35373Z" fill="#1F3C86"/>
<path d="M48.3327 4.40741C50.0315 4.40741 50.4828 5.46964 50.4828 6.34524C50.4828 7.0355 50.098 7.59282 49.5138 7.84591C50.2565 8.04532 50.7486 8.72151 50.7486 9.57155C50.7486 10.7002 49.9523 11.6692 48.412 11.6692H45.7302V4.40869H48.3327V4.40741ZM46.7132 7.50078H48.2663C49.0358 7.50078 49.5011 7.04956 49.5011 6.34524C49.5011 5.28302 48.4925 5.29708 48.2663 5.29708H46.7132V7.50078ZM46.7132 10.7795H48.3059C49.4614 10.7795 49.7657 10.0892 49.7657 9.58433C49.7657 9.27883 49.6724 8.38917 48.3059 8.38917H46.7132V10.7795Z" fill="#1F3C86"/>
<path d="M52.1036 1.8458H53.0853V3.51903H52.1036V1.8458ZM52.1036 4.40741H53.0853V11.6679H52.1036V4.40741Z" fill="#1F3C86"/>
<path d="M58.8068 4.40741V5.29708H56.9355V11.6692H55.9538V5.29708H54.0824V4.40741H58.8068Z" fill="#1F3C86"/>
<path d="M36.9691 16.0663V25.8897H35.9874V16.0663H36.9691ZM41.4302 16.0663H42.5985L38.8149 20.7524L42.757 25.8897H41.5363L37.6466 20.8585L41.4302 16.0663Z" fill="#1F3C86"/>
<path d="M50.2974 25.8897H49.2352L46.6864 19.8768L44.1375 25.8897H43.0753L46.1815 18.6292H47.2041L50.2974 25.8897Z" fill="#1F3C86"/>
<path d="M58.6342 25.8897H57.7049V24.536H57.678C57.2664 25.1598 56.4305 26.0623 54.8505 26.0623C52.6737 26.0623 50.9608 24.4696 50.9608 22.2135C50.9608 20.4878 52.2212 18.4567 54.8237 18.4567C55.4475 18.4567 56.8011 18.55 57.678 19.8896H57.7049V18.6292H58.6342V25.8897ZM51.9438 22.2927C51.9438 23.9519 53.2975 25.1726 54.8505 25.1726C56.4432 25.1726 57.7049 23.8982 57.7049 22.3055C57.7049 20.6591 56.4701 19.3451 54.825 19.3451C53.2451 19.3451 51.9438 20.6067 51.9438 22.2927Z" fill="#1F3C86"/>
<path d="M67.435 23.7653C66.9442 24.8403 65.8947 26.0623 63.9045 26.0623C61.4221 26.0623 60.0288 24.1513 60.0288 22.2531C60.0288 20.5147 61.3697 18.4567 63.9045 18.4567C65.5905 18.4567 66.8777 19.3988 67.4491 20.833H66.3472C65.6173 19.4 64.2368 19.3463 63.9045 19.3463C62.2185 19.3463 61.0105 20.6335 61.0105 22.2403C61.0105 23.8995 62.3245 25.1739 63.9045 25.1739C64.9002 25.1739 65.8295 24.683 66.3472 23.7665H67.435V23.7653Z" fill="#1F3C86"/>
<path d="M69.8777 18.6292V24.4964L74.2046 18.6292H75.1863V25.8897H74.2046V20.0225L69.8777 25.8897H68.896V18.6292H69.8777Z" fill="#1F3C86"/>
<path d="M82.0901 25.8897H81.1084V23.1555H79.2371C78.4804 23.1555 77.7505 23.1159 77.2059 22.5049C76.7419 21.9744 76.7151 21.3762 76.7151 20.686V18.628H77.6968V20.686C77.6968 21.1244 77.7096 21.628 78.0688 21.9604C78.4139 22.2787 78.9047 22.2659 79.2371 22.2659H81.1084V18.6292H82.0901V25.8897Z" fill="#1F3C86"/>
<path d="M84.745 18.6292V21.7226H88.8073V18.6292H89.789V25.8897H88.8073V22.611H84.745V25.8897H83.7633V18.6292H84.745Z" fill="#1F3C86"/>
<path d="M98.7764 22.2659C98.7764 24.43 97.1172 26.0623 94.98 26.0623C92.8428 26.0623 91.1836 24.43 91.1836 22.2659C91.1836 20.1018 92.83 18.4567 94.98 18.4567C97.1313 18.4567 98.7764 20.1018 98.7764 22.2659ZM92.1666 22.2659C92.1666 23.9123 93.3477 25.1726 94.98 25.1726C96.6123 25.1726 97.7947 23.9123 97.7947 22.2659C97.7947 20.6195 96.6136 19.3451 94.98 19.3451C93.3477 19.3451 92.1666 20.6195 92.1666 22.2659Z" fill="#1F3C86"/>
<path d="M100.649 16.0663V17.7396H99.6674V16.0663H100.649ZM100.556 18.6292H101.537V25.8897H100.556V18.6292ZM102.427 16.0663V17.7396H101.445V16.0663H102.427Z" fill="#1F3C86"/>
<path d="M35.7216 29.5263H37.235L40.8461 37.8887L44.4571 29.5263H45.9706V39.3497H44.9889V30.6282L41.2589 39.3497H40.4358L36.7058 30.6282V39.3497H35.7241V29.5263H35.7216Z" fill="#1F3C86"/>
<path d="M53.9609 32.088L49.7657 41.8973H48.7176L49.9255 39.0174L47.0712 32.088H48.2395L50.5224 37.7429L52.9115 32.088H53.9609Z" fill="#1F3C86"/>
<path d="M54.825 33.8673C54.958 32.4203 56.1787 31.9154 57.1617 31.9154C58.2239 31.9154 59.4446 32.4331 59.4446 33.8136C59.4446 34.5435 59.0867 35.2606 58.3428 35.552C59.1928 35.7783 59.63 36.4813 59.63 37.3569C59.63 38.6173 58.6214 39.521 57.1476 39.521C55.3287 39.521 54.5719 38.4588 54.586 37.2649H55.5677C55.5677 38.0484 56.125 38.6326 57.1476 38.6326C58.4348 38.6326 58.6483 37.7698 58.6483 37.385C58.6483 36.8009 58.3824 36.071 57.1476 36.071H56.497V35.1813H57.1476C58.0373 35.1813 58.4617 34.5972 58.4617 33.9465C58.4617 33.3496 58.0769 32.8051 57.2141 32.8051C56.3641 32.8051 55.9 33.2563 55.8067 33.8673H54.825Z" fill="#1F3C86"/>
<path d="M61.9794 32.088V37.9551L66.3063 32.088H67.288V39.3484H66.3063V33.4813L61.9794 39.3484H60.9977V32.088H61.9794Z" fill="#1F3C86"/>
<path d="M68.9625 39.3497V32.0892H69.9442V39.3497H68.9625ZM70.5156 35.6722L73.3559 32.088H74.5101L71.7223 35.5916L74.6955 39.3484H73.4351L70.5156 35.6722Z" fill="#1F3C86"/>
<path d="M76.5822 32.088V37.9551L80.909 32.088H81.8907V39.3484H80.909V33.4813L76.5822 39.3497H75.6005V32.0892H76.5822V32.088Z" fill="#1F3C86"/>
</g>
</g>
<defs>
<clipPath id="clip0_1_588">
<rect width="104.84" height="45.98" fill="white"/>
</clipPath>
<clipPath id="clip1_1_588">
<rect width="104.84" height="45.98" fill="white"/>
</clipPath>
</defs>
</svg>
