<svg width="190" height="84" viewBox="0 0 190 84" fill="none" xmlns="http://www.w3.org/2000/svg">
<g clip-path="url(#clip0_1_490)">
<path d="M49.8547 22.4117C49.8083 19.5759 48.7426 16.8396 46.6805 14.2726C46.004 13.4501 45.1282 12.4538 44.0764 11.3139C42.9967 10.1439 42.2299 9.23569 41.7248 8.536C41.2266 7.86179 40.7772 7.02077 40.3879 6.03379C40.2837 5.76966 40.1841 5.48237 40.0937 5.18118V2.51447H36.9312L36.9914 51.4768C32.5824 46.7898 24.427 45.68 17.1498 49.0047C12.8867 50.9509 9.48326 54.118 7.56721 57.9223C5.628 61.7706 5.4357 65.8112 7.02739 69.2981C9.12415 73.8739 13.9108 76.6959 19.8281 76.8488C19.9879 76.8534 20.1408 76.8581 20.3053 76.8581C20.5046 76.8581 20.7201 76.8534 20.9819 76.8465C23.6764 76.7584 26.4474 76.0912 28.9959 74.9212C36.3218 71.5756 40.8791 64.669 40.0914 58.1146V26.7234C40.7586 26.8624 41.4097 27.1057 42.0306 27.4486C43.0384 28.0046 43.9582 28.7483 44.7575 29.6589C44.9869 29.923 45.2117 30.2056 45.4248 30.5022C45.1283 31.2158 44.8641 31.8599 44.6278 32.4252L44.2571 33.3149L46.2172 33.2848L46.3956 32.9743C46.472 32.8422 46.5462 32.7102 46.6203 32.5804C46.6342 32.6129 46.6481 32.6453 46.662 32.6777C47.1161 33.762 47.3548 34.8417 47.3687 35.8912C47.3802 36.5608 47.3177 37.2582 47.1787 37.9625C47.0466 38.6622 46.8566 39.3689 46.5925 40.1242C46.3168 40.9188 45.9971 41.7529 45.638 42.6078C45.2534 43.5346 44.9174 44.3455 44.6255 45.0452L44.2571 45.9325L46.2149 45.9094L46.3933 45.5943C48.7402 41.4818 49.9033 37.9301 49.85 35.041C49.8176 33.0554 49.2824 31.1115 48.2607 29.2534C49.3542 26.6956 49.8894 24.3949 49.8547 22.4117ZM21.5287 72.2336C20.4953 72.5927 21.4591 74.006 20.398 74.1636C20.8336 74.4949 20.2891 74.949 20.0204 75.0023C20.0899 75.0764 20.1756 75.0949 20.2729 75.0648C19.8327 75.5467 20.4559 75.3591 20.4119 75.7182C19.8559 75.688 19.3438 75.834 19.2211 75.6162C19.1075 75.3938 19.3253 75.5305 19.0009 75.2293C18.9662 75.2617 18.9731 75.2919 19.0195 75.322C18.6256 75.2664 18.4797 74.4902 18.3267 74.2261C18.1275 73.8832 17.9282 73.4013 17.6525 73.1325C17.2563 72.7433 16.8972 72.8059 16.4478 72.5719C15.8477 72.2591 15.1665 71.608 14.9511 71.1215C14.6661 70.4774 14.9928 70.2388 14.3325 69.787C14.5502 69.9353 13.3779 69.6433 13.32 69.6202C12.9215 69.4626 12.5786 69.414 12.2125 69.3445C11.1004 69.129 10.7645 68.5544 9.96517 67.8385C9.75897 67.9821 10.644 68.6749 10.4494 68.8649C10.2525 69.0549 9.32803 67.4076 9.1867 67.1875C8.85539 66.6731 8.5264 65.7834 8.47543 65.7626C8.06071 65.5888 7.94486 64.7756 7.56721 64.5393C7.50003 64.6088 7.46759 64.6922 7.46759 64.7872C7.48612 64.7177 7.50698 65.6954 7.50698 65.6954L7.42357 65.9155C7.42357 65.9155 7.17567 65.005 7.14786 64.5277C7.12933 64.2149 7.17103 63.2604 7.35175 62.8109C7.66452 62.0394 7.67147 62.1089 8.19972 61.6455C8.28544 61.9236 8.83917 61.0779 8.96429 60.7674C8.98745 60.7095 9.03843 58.995 9.15427 59.0182C9.05001 59.046 9.30023 58.9093 9.145 58.7471L8.88783 58.4784C8.83454 58.388 9.11951 57.7022 9.28401 57.4659C9.20987 57.5053 9.19134 57.3593 9.12183 57.3477C9.7219 56.4279 10.4332 55.5012 11.4456 55.01C11.3599 55.112 11.3761 55.1212 11.4966 55.0332C11.4642 55.0934 10.8734 55.617 10.8734 55.6912C11.0912 55.5383 12.706 54.3729 12.7246 54.1481C12.662 54.1412 12.662 54.0995 12.6133 54.1319C12.7547 53.8192 13.1323 54.0161 13.2435 53.7937C12.6458 53.7357 13.9687 52.9828 14.0151 52.948C14.5734 52.5588 15.1503 52.0491 15.8616 51.9819C15.8546 52.005 16.0191 52.0861 15.9612 52.4707C16.413 52.2669 16.5543 52.1464 17.0316 51.9772C17.5089 51.8058 16.6308 52.7325 16.5358 52.9503C16.6447 52.9225 16.7536 52.9272 16.8578 52.9642C16.8347 52.992 16.9389 52.8252 16.9922 53.7103C17.027 54.2825 16.8439 55.2556 16.7235 55.4688C16.3366 56.143 15.667 56.4488 15.3079 57.1786C15.0646 57.6721 15.0831 58.2397 14.9094 58.6081C14.4205 59.6507 13.9432 57.8714 13.2157 57.4057C13.1207 57.4983 12.9122 57.3894 12.9122 57.3894C12.9122 57.3894 12.7037 57.2087 12.3376 57.2968C12.2357 56.9029 12.7315 56.8311 12.1708 56.6805C11.8743 56.6017 10.4795 57.357 10.6556 57.1717C10.8641 57.0396 10.9359 56.8983 10.8734 56.7477C10.6556 56.8172 10.7112 56.7963 10.6347 56.8728C10.7297 56.604 10.885 56.377 11.1028 56.1916C10.9637 56.2912 11.3391 55.9715 11.2348 55.8441C11.0495 55.8719 10.9452 56.0596 11.258 55.5939C10.8294 56.0596 10.5537 56.604 10.1899 57.2991C10.2316 57.2064 10.3173 57.2806 10.3984 57.2203C10.3544 57.5377 9.85628 57.9478 9.93505 58.3903C10.0903 58.3973 10.3845 58.4367 10.5189 58.4297C10.6533 58.4228 11.4294 58.2629 11.5777 58.2699C11.7237 58.2768 12.1175 58.6104 12.2797 58.5479C12.2079 58.7471 12.2195 58.907 12.1685 59.1178C12.0457 59.616 11.8951 59.097 11.6565 59.3009C11.8302 59.5233 12.523 59.9751 11.7584 60.1257C12.1685 60.4616 11.1282 60.2809 10.7413 60.5774C10.5838 60.1975 11.0541 59.8175 10.9522 59.3935C10.688 59.4816 10.8827 59.7851 10.6371 59.8893C10.7043 59.3889 10.5513 59.3148 10.2501 59.7017C10.2061 59.7573 9.99992 60.7072 9.942 60.8601C9.76129 61.3466 9.48095 62.6487 9.96517 62.6858C10.4494 62.7229 10.7066 62.3892 10.9035 62.4448C11.1004 62.5004 11.1352 63.1561 11.346 62.9986C11.5569 62.841 11.251 61.8587 11.3136 62.1182C11.2255 61.7614 10.7251 61.3907 10.8734 60.9342C10.9522 60.6933 10.9174 60.5937 11.3321 60.5381C11.6078 60.501 11.865 60.7373 11.865 60.7373C12.5091 60.6354 12.0179 60.4199 12.2496 60.3898C12.4813 60.3597 13.8274 61.064 13.9085 61.4046C13.9757 61.6872 13.4127 62.0487 13.2111 62.2757C12.7269 62.8225 12.4465 62.7368 12.5902 63.6427C12.7408 63.5245 12.6458 63.2395 12.7014 63.0797C12.7315 63.1052 12.7454 63.0959 12.7454 63.0542C13.269 63.1051 12.8404 64.2868 12.808 64.4003C12.7477 64.6134 12.5207 64.7733 12.4813 65.0652C12.4581 65.2343 12.706 65.378 12.706 65.3919C12.6852 65.5958 12.4048 66.1611 12.4234 66.3441C12.4628 66.7032 13.1416 67.1434 13.1416 67.1434C13.1416 67.1434 13.2157 67.301 13.1787 67.4701C13.1416 67.6393 12.9145 67.484 12.9145 67.484C12.9145 67.484 11.2835 67.1411 11.5013 68.0331C11.5406 68.1907 11.9229 68.9182 12.1731 68.9112C12.574 68.8996 12.2612 68.2718 12.6991 68.1814C13.1068 69.0201 12.9887 68.7629 13.5748 69.1568C13.8506 69.3421 13.6722 69.6387 14.1216 69.7291C14.1842 69.7407 14.4414 69.5947 14.6337 69.6503C14.7286 69.268 14.8236 68.6471 15.053 69.1545C14.8144 68.1953 19.2465 69.3885 18.9199 69.7337C19.1006 69.6179 20.9981 69.2912 21.2807 69.5368C21.8854 70.0627 21.2089 70.3315 21.2738 70.825C21.3595 71.4111 21.7534 71.5663 21.5287 72.2336ZM37.2694 58.6915C36.9173 58.7819 36.4585 57.9131 36.4817 57.9478C36.5257 58.0243 36.25 57.452 35.8724 57.4335C35.4947 57.4149 36.0299 59.9843 35.5411 60.0006C35.0522 60.0168 34.6908 58.4274 34.4869 58.3579C34.283 58.2884 34.4915 58.6753 34.2761 58.5548C34.0606 58.432 33.2705 58.1262 33.0319 58.1586C32.6264 58.2166 31.475 57.9849 31.3985 58.2606C31.322 58.5363 32.0565 58.717 32.3484 59.002C32.5152 58.8074 32.6566 58.5525 32.6149 58.3625C33.3261 58.7494 33.3887 58.8699 33.0435 59.7943C32.8187 60.3991 32.038 61.6015 31.8804 61.0408C31.7229 60.4801 29.779 59.141 29.6261 58.9093C29.4755 58.6799 29.4778 58.2467 29.3481 57.9316C29.0932 57.8829 28.9287 57.9918 28.6507 58.1007C28.3727 58.2096 27.7263 58.6081 27.4552 57.6976C26.5563 58.0266 27.8166 58.4529 27.629 58.9533C27.4853 58.8537 27.5085 59.0437 27.4065 59.1479C27.3046 59.2545 26.0072 57.7208 25.1244 57.6814C25.3862 58.2861 25.3654 58.2652 25.5276 58.7703C25.7708 59.5325 24.712 58.1911 24.5035 58.2189C24.0355 58.2814 23.5605 58.8699 23.3984 59.3009C23.308 59.5418 23.5513 59.8337 23.4401 60.1025C23.3103 60.4153 22.9304 60.6192 22.8562 60.9134C24.01 60.8369 25.275 59.5997 25.4812 59.7411C25.6874 59.8824 25.8125 60.311 26.2365 60.0423C26.5864 60.0029 26.9084 60.4361 27.2351 60.2299C27.5641 60.0237 27.1934 59.5928 27.4089 59.4932C27.6521 59.382 28.9032 59.0645 29.1789 59.0831C30.2192 59.1595 29.2484 59.1989 29.7026 59.6414C30.2192 60.1442 30.7521 60.7141 31.3568 61.1103C32.1445 61.6247 32.6033 61.057 32.9068 60.9783C33.2103 60.8995 32.3554 63.2627 32.5291 64.4165C32.6519 65.232 32.9091 65.3247 32.8025 66.175C32.7353 66.7125 32.7075 67.3635 32.5986 67.9289C32.5152 68.3598 32.3206 68.7745 32.0403 69.1128C31.4124 69.8727 31.1946 69.9283 30.5227 69.5229C30.2401 69.3514 29.3504 68.573 29.1905 68.2347C28.8986 67.6115 29.2067 67.0994 28.5928 66.5156C28.3565 66.3071 28.0923 66.1472 27.7958 66.0406C27.805 65.8669 27.7888 65.6977 27.7494 65.5286C27.5548 65.4012 26.8018 65.1996 26.4196 65.3479C25.1221 65.8483 24.8812 66.9998 23.3845 66.029C22.2932 65.3201 21.9318 64.5532 22.2631 63.3206C22.3349 63.0542 22.6593 60.9157 22.8191 60.9157C22.2793 60.6817 21.1464 60.5728 21.7488 59.463C21.8808 59.2174 22.4925 59.2221 22.599 58.9603C22.8585 58.3255 22.1751 58.6637 21.8229 58.4459C21.7951 58.3092 23.2385 56.7593 23.3845 56.2658C23.4679 56.1638 23.542 56.0688 23.6926 56.0225C23.8154 55.9831 23.9312 55.9345 24.0448 55.8788C24.0656 55.8719 24.0888 55.8719 24.1073 55.8626C24.1259 55.8557 24.1398 55.8441 24.1583 55.8348C24.3946 55.7491 24.6402 55.6263 24.8719 55.4827C24.9831 55.4178 25.0897 55.3413 25.187 55.2718C25.1545 55.1143 25.0897 54.9428 25.143 54.82C25.1545 54.8177 25.1615 54.8247 25.1684 54.8247C25.1499 54.7366 25.143 54.6532 25.1731 54.5884C25.187 54.586 25.1916 54.5884 25.2009 54.5884C25.2009 54.5791 25.2009 54.5675 25.2102 54.5605C25.3329 54.5536 25.4372 54.593 25.5113 54.7297C25.421 54.5675 25.2009 54.4007 25.2704 54.3057C25.3098 54.2987 25.3445 54.2872 25.3816 54.2825C25.3167 54.1968 25.2658 54.1203 25.3051 54.0647C25.3098 54.0647 25.3167 54.0624 25.326 54.0624C25.3283 54.0532 25.3306 54.0439 25.3376 54.0369C25.5832 53.9721 25.7871 53.9373 25.9098 53.8585C25.933 53.8423 25.9515 53.8307 25.9631 53.8099C25.9585 53.7775 25.9562 53.7427 25.9423 53.7056C25.6805 53.7798 25.3723 54.0416 24.8534 54.2825C24.7282 54.0532 24.6054 53.8331 24.478 53.6129C24.4919 53.5597 24.5174 53.511 24.5591 53.4647C24.5383 53.4346 24.5174 53.3998 24.4966 53.365C24.5359 53.233 24.6634 53.1357 24.7398 53.0175C24.7375 53.0152 24.7375 53.0129 24.7352 53.0036C24.156 53.0546 24.1189 53.6431 24.0193 54.0995C24.1282 54.3497 24.4178 54.1528 24.5174 54.4424C24.4711 54.5073 24.4502 54.5791 24.4317 54.6532C24.441 54.6741 24.4525 54.6857 24.4595 54.7088C24.434 54.7389 24.4201 54.7783 24.4016 54.8154C24.39 54.9289 24.3761 55.0425 24.3413 55.1537C24.1606 55.3205 24.0007 55.4456 23.7621 55.5035C23.732 55.4688 23.7019 55.434 23.6555 55.4062C23.6161 55.3807 23.5721 55.3622 23.5258 55.346C22.7357 54.6486 23.3335 55.8719 22.4971 55.6935C22.2515 55.6402 21.6908 56.4743 22.4716 54.1644C22.7079 53.4647 22.701 53.1403 22.9674 52.8669C22.0337 52.3618 24.5081 51.449 25.838 51.5903C26.1693 51.6251 26.9084 51.31 26.8018 51.9286C26.7393 52.2808 26.2249 52.158 26.1809 52.3642C26.1369 52.5727 26.8667 52.8994 27.0034 52.6816C27.1401 52.4638 27.0729 51.873 26.8876 51.6297C26.7022 51.3864 26.8806 51.4351 26.9478 51.3262C27.015 51.2173 28.9473 51.0574 28.9982 50.9092C29.0492 50.7609 28.6113 50.8072 28.6113 50.6891C28.6113 50.5709 29.2299 50.8281 29.4292 50.7007C29.6284 50.5732 29.2878 50.0357 29.4384 50.0264C29.7721 49.855 30.0733 50.5964 30.254 50.4921C30.4347 50.3879 29.8671 50.1539 29.9481 49.9986C30.013 49.8735 30.1682 49.994 30.1775 50.0311C30.2748 50.0218 30.2517 49.8666 30.4208 49.7299C30.6038 49.5816 31.0672 49.2179 31.4935 49.2086C31.9198 49.1993 33.6088 50.4597 33.4605 50.3114C33.5671 50.3832 33.9447 50.7771 34.0861 50.7678C34.2274 50.7586 33.9077 50.5686 34.1208 50.4388C35.5272 50.9625 36.9034 53.0106 36.7991 53.1797C36.6949 53.3488 35.4206 51.6575 35.4044 51.9564C35.3881 52.2553 36.3682 52.8322 36.6833 53.8168C36.762 53.9976 37.2185 55.0425 37.1397 55.1606C37.0609 55.2788 36.7458 54.6324 36.5767 54.7274C36.4076 54.8224 37.003 55.4989 37.0702 55.9275C37.1374 56.3515 36.8037 56.8357 36.8733 57.1184C37.0517 57.8459 37.6216 58.6012 37.2694 58.6915ZM47.8019 25.4538C47.6606 26.2021 47.4544 26.9505 47.1926 27.7034C47.1208 27.912 47.0466 28.1251 46.9655 28.3475C46.7269 27.9954 46.472 27.6478 46.194 27.3003C45.5337 26.4987 44.6741 25.5209 43.613 24.3695C42.5473 23.2087 41.7433 22.2681 41.2174 21.5383C40.6799 20.8108 40.2072 19.928 39.8018 18.8947C39.6813 18.5842 39.5655 18.2529 39.4635 17.8985V13.3597C40.4435 13.464 41.4074 13.7582 42.3411 14.2702C43.4161 14.8564 44.3869 15.6441 45.2395 16.6172C46.0921 17.5903 46.764 18.6491 47.2482 19.8076C47.7324 20.9637 47.9896 22.1105 48.0058 23.2574C48.0151 23.9779 47.9479 24.71 47.8019 25.4538Z" fill="#1F3C86"/>
<path d="M78.1367 8.31125C77.6548 7.56522 75.8986 5.06301 72.0735 5.06301C67.5973 5.06301 64.59 8.55221 64.59 12.6183C64.59 16.9972 67.9587 20.2686 72.1917 20.2686C74.3579 20.2686 76.7628 19.233 78.2062 16.923H80.3239C78.6627 20.0276 75.6809 21.8788 72.1917 21.8788C66.9718 21.8788 62.8083 18.0537 62.8083 12.616C62.8083 7.32195 66.8976 3.44815 72.048 3.44815C75.7527 3.44815 78.76 5.2275 80.252 8.30894H78.1367V8.31125Z" fill="#1F3C86"/>
<path d="M87.5919 8.40857C90.671 8.40857 91.4889 10.3339 91.4889 11.9209C91.4889 13.172 90.7915 14.1822 89.7327 14.6409C91.0788 15.0024 91.9708 16.228 91.9708 17.7687C91.9708 19.8145 90.5274 21.5707 87.7355 21.5707H82.8748V8.41089H87.5919V8.40857ZM84.6564 14.0154H87.4714C88.8662 14.0154 89.7095 13.1975 89.7095 11.9209C89.7095 9.99562 87.8815 10.0211 87.4714 10.0211H84.6564V14.0154ZM84.6564 19.9581H87.5432C89.6377 19.9581 90.1891 18.707 90.1891 17.7919C90.1891 17.2381 90.02 15.6256 87.5432 15.6256H84.6564V19.9581Z" fill="#1F3C86"/>
<path d="M94.4266 3.76556H96.206V6.79834H94.4266V3.76556ZM94.4266 8.40856H96.206V21.5684H94.4266V8.40856Z" fill="#1F3C86"/>
<path d="M106.576 8.40857V10.0211H103.184V21.5707H101.405V10.0211H98.0132V8.40857H106.576Z" fill="#1F3C86"/>
<path d="M66.9949 29.5407V47.3458H65.2156V29.5407H66.9949ZM75.0808 29.5407H77.1984L70.3405 38.0343L77.4857 47.3458H75.2731L68.2229 38.2266L75.0808 29.5407Z" fill="#1F3C86"/>
<path d="M91.1529 47.3458H89.2276L84.6078 36.4473L79.9879 47.3458H78.0626L83.6926 34.186H85.5461L91.1529 47.3458Z" fill="#1F3C86"/>
<path d="M106.263 47.3458H104.579V44.8922H104.53C103.784 46.0229 102.269 47.6586 99.4056 47.6586C95.4599 47.6586 92.3553 44.7718 92.3553 40.6825C92.3553 37.5547 94.6398 33.8732 99.3569 33.8732C100.488 33.8732 102.941 34.0424 104.53 36.4704H104.579V34.186H106.263V47.3458ZM94.137 40.8261C94.137 43.8334 96.5906 46.046 99.4056 46.046C102.292 46.046 104.579 43.7361 104.579 40.8493C104.579 37.8652 102.341 35.4835 99.3592 35.4835C96.4956 35.4835 94.137 37.7702 94.137 40.8261Z" fill="#1F3C86"/>
<path d="M122.215 43.4952C121.326 45.4437 119.423 47.6586 115.816 47.6586C111.317 47.6586 108.791 44.1949 108.791 40.7543C108.791 37.6034 111.222 33.8732 115.816 33.8732C118.872 33.8732 121.205 35.5808 122.241 38.1803H120.244C118.921 35.5831 116.418 35.4858 115.816 35.4858C112.76 35.4858 110.571 37.8189 110.571 40.7312C110.571 43.7384 112.952 46.0484 115.816 46.0484C117.621 46.0484 119.305 45.1587 120.244 43.4975H122.215V43.4952Z" fill="#1F3C86"/>
<path d="M126.643 34.186V44.8204L134.485 34.186H136.265V47.3458H134.485V36.7114L126.643 47.3458H124.863V34.186H126.643Z" fill="#1F3C86"/>
<path d="M148.778 47.3458H146.999V42.3901H143.607C142.235 42.3901 140.912 42.3182 139.925 41.2108C139.084 40.2493 139.036 39.165 139.036 37.9139V34.1837H140.815V37.9139C140.815 38.7086 140.838 39.6214 141.489 40.2238C142.115 40.8007 143.004 40.7775 143.607 40.7775H146.999V34.186H148.778V47.3458Z" fill="#1F3C86"/>
<path d="M153.59 34.186V39.7929H160.953V34.186H162.733V47.3458H160.953V41.4031H153.59V47.3458H151.811V34.186H153.59Z" fill="#1F3C86"/>
<path d="M179.022 40.7775C179.022 44.6999 176.015 47.6586 172.141 47.6586C168.267 47.6586 165.26 44.6999 165.26 40.7775C165.26 36.855 168.244 33.8732 172.141 33.8732C176.041 33.8732 179.022 36.855 179.022 40.7775ZM167.042 40.7775C167.042 43.7616 169.183 46.046 172.141 46.046C175.1 46.046 177.243 43.7616 177.243 40.7775C177.243 37.7934 175.102 35.4835 172.141 35.4835C169.183 35.4835 167.042 37.7934 167.042 40.7775Z" fill="#1F3C86"/>
<path d="M182.417 29.5407V32.5735H180.637V29.5407H182.417ZM182.247 34.186H184.027V47.3458H182.247V34.186ZM185.639 29.5407V32.5735H183.86V29.5407H185.639Z" fill="#1F3C86"/>
<path d="M64.7336 53.9373H67.4768L74.022 69.0943L80.5671 53.9373H83.3103V71.7424H81.5309V55.9345L74.7703 71.7424H73.2782L66.5176 55.9345V71.7424H64.7383V53.9373H64.7336Z" fill="#1F3C86"/>
<path d="M97.7931 58.5803L90.1891 76.3599H88.2893L90.4787 71.14L85.3052 58.5803H87.4228L91.5607 68.8301L95.8909 58.5803H97.7931Z" fill="#1F3C86"/>
<path d="M99.3593 61.8054C99.6002 59.1827 101.813 58.2675 103.594 58.2675C105.52 58.2675 107.732 59.2058 107.732 61.7081C107.732 63.031 107.084 64.3308 105.735 64.859C107.276 65.2691 108.068 66.5434 108.068 68.1304C108.068 70.4148 106.24 72.0529 103.569 72.0529C100.272 72.0529 98.9005 70.1276 98.926 67.9636H100.705C100.705 69.3838 101.716 70.4427 103.569 70.4427C105.902 70.4427 106.289 68.8788 106.289 68.1814C106.289 67.1226 105.807 65.7997 103.569 65.7997H102.39V64.1871H103.569C105.182 64.1871 105.951 63.1283 105.951 61.949C105.951 60.867 105.253 59.8801 103.689 59.8801C102.149 59.8801 101.308 60.6979 101.139 61.8054H99.3593Z" fill="#1F3C86"/>
<path d="M112.327 58.5803V69.2147L120.169 58.5803H121.949V71.7401H120.169V61.1057L112.327 71.7401H110.547V58.5803H112.327Z" fill="#1F3C86"/>
<path d="M124.984 71.7424V58.5826H126.763V71.7424H124.984ZM127.799 65.0768L132.947 58.5803H135.039L129.986 64.9308L135.375 71.7401H133.09L127.799 65.0768Z" fill="#1F3C86"/>
<path d="M138.795 58.5803V69.2147L146.637 58.5803H148.417V71.7401H146.637V61.1057L138.795 71.7424H137.015V58.5826H138.795V58.5803Z" fill="#1F3C86"/>
</g>
<defs>
<clipPath id="clip0_1_490">
<rect width="190" height="83.34" fill="white" transform="translate(0 0.420013)"/>
</clipPath>
</defs>
</svg>
