<svg width="132" height="116" viewBox="0 0 132 116" fill="none" xmlns="http://www.w3.org/2000/svg">
<g clip-path="url(#clip0_2_2471)">
<g clip-path="url(#clip1_2_2471)">
<path opacity="0.3" fill-rule="evenodd" clip-rule="evenodd" d="M41.8262 90.3146C38.4186 90.3146 35.1506 91.6682 32.7411 94.0777C30.3316 96.4873 28.9779 99.7553 28.9779 103.163C28.9779 106.57 30.3316 109.838 32.7411 112.248C35.1506 114.658 38.4186 116.011 41.8262 116.011C45.2338 116.011 48.5018 114.658 50.9113 112.248C53.3208 109.838 54.6745 106.57 54.6745 103.163C54.6745 99.7553 53.3208 96.4873 50.9113 94.0777C48.5018 91.6682 45.2338 90.3146 41.8262 90.3146ZM110.046 90.3146C106.638 90.3146 103.37 91.6682 100.961 94.0777C98.5513 96.4873 97.1976 99.7553 97.1976 103.163C97.1976 106.57 98.5513 109.838 100.961 112.248C103.37 114.658 106.638 116.011 110.046 116.011C113.453 116.011 116.721 114.657 119.131 112.247C121.54 109.838 122.893 106.569 122.893 103.162C122.893 99.7543 121.539 96.4864 119.129 94.0771C116.72 91.6677 113.451 90.3143 110.044 90.3146H110.046ZM130.238 19.0107C129.744 18.3939 129.117 17.8963 128.404 17.5547C127.691 17.213 126.91 17.0362 126.119 17.0372H29.3141L24.2807 3.43053C23.9072 2.42075 23.2334 1.54956 22.3501 0.934093C21.4667 0.318629 20.4161 -0.0115867 19.3394 -0.012146H5.86235C4.47709 0.00705443 3.15508 0.570818 2.18227 1.5572C1.20946 2.54359 0.664062 3.87331 0.664062 5.2587C0.664062 6.64409 1.20946 7.97378 2.18227 8.96016C3.15508 9.94655 4.47709 10.5103 5.86235 10.5295H15.6669L40.7418 78.251C41.1163 79.2592 41.7906 80.1285 42.674 80.742C43.5574 81.3555 44.6075 81.6837 45.683 81.6826C45.8926 81.6826 46.1052 81.6694 46.3148 81.6552L116.607 73.2197C117.693 73.0897 118.712 72.6258 119.524 71.8919C120.335 71.1581 120.898 70.1906 121.136 69.1229L131.281 23.4487C131.45 22.678 131.444 21.8793 131.263 21.1113C131.083 20.3433 130.732 19.6255 130.238 19.0107ZM116.044 43.3919H94.9831V27.5789H119.562L116.044 43.3919ZM68.6304 43.3919V27.5789H89.7169V43.3919H68.6304ZM89.7169 48.6623V65.828L68.6304 68.3534V48.6552H89.7169V48.6623ZM63.3591 27.5789V43.3919H39.07L33.2165 27.5789H63.3591ZM41.0233 48.6623H63.3591V68.9983L49.1834 70.7004L41.0233 48.6623ZM94.9923 65.1962V48.6623H114.882L111.656 63.1924L94.9923 65.1962Z" fill="black"/>
</g>
</g>
<defs>
<clipPath id="clip0_2_2471">
<rect width="131" height="116" fill="white" transform="translate(0.5)"/>
</clipPath>
<clipPath id="clip1_2_2471">
<rect width="130.81" height="116" fill="white" transform="translate(0.59375)"/>
</clipPath>
</defs>
</svg>
