<svg width="124" height="100" viewBox="0 0 124 100" fill="none" xmlns="http://www.w3.org/2000/svg">
<path fill-rule="evenodd" clip-rule="evenodd" d="M111.652 55.2946L63.4212 99.0373H61.3732L9.68133 52.7054L9.7496 52.6743C4.01909 46.8138 0.859384 39.233 0.874865 31.3817C0.684452 23.2499 4.04232 15.3818 10.2108 9.50576C16.3793 3.62974 24.8539 0.226459 33.7728 0.0435685C39.7695 0.108703 45.6303 1.6805 50.7106 4.58608C55.7909 7.49165 59.8937 11.6184 62.5679 16.5124C65.2078 11.6114 69.2863 7.47363 74.3503 4.55867C79.4142 1.6437 85.2654 0.0657145 91.2538 0C100.112 0.182917 108.528 3.56242 114.656 9.39685C120.784 15.2313 124.123 23.044 123.94 31.1203C123.957 35.7241 122.865 40.2752 120.742 44.4522C118.619 48.6293 115.516 52.3305 111.652 55.2946ZM102.934 45.3361L63.1823 82.2075H61.5098L19.7917 43.5685L19.9146 43.444C18.0542 41.5754 16.6303 39.3812 15.7294 36.995C14.8286 34.6088 14.4696 32.0804 14.6744 29.5637C14.8792 27.047 15.6435 24.5946 16.9207 22.3558C18.198 20.1169 19.9615 18.1383 22.104 16.5405C24.2464 14.9427 26.7231 13.7589 29.3832 13.0614C32.0433 12.3638 34.8313 12.1669 37.5775 12.4828C40.3237 12.7987 42.9706 13.6206 45.3574 14.8987C47.7442 16.1767 49.8207 17.8841 51.4608 19.917L51.5154 19.8734L51.768 20.2344C52.3165 20.9489 52.8093 21.6976 53.2426 22.4751L62.7454 36.9336L71.4426 22.9979C71.8984 22.1105 72.4302 21.2572 73.0333 20.4461C74.6922 18.2583 76.8458 16.4197 79.3492 15.0541C81.8525 13.6885 84.6476 12.8274 87.5465 12.5289C90.4453 12.2303 93.3806 12.5011 96.155 13.3232C98.9295 14.1452 101.479 15.4993 103.631 17.2945C105.784 19.0898 107.49 21.2844 108.634 23.7309C109.779 26.1773 110.335 28.8189 110.267 31.4779C110.198 34.1368 109.506 36.7516 108.236 39.1463C106.967 41.541 105.15 43.6601 102.907 45.361L102.934 45.3361Z" fill="#BABABA"/>
</svg>
