<svg width="23" height="22" viewBox="0 0 23 22" fill="none" xmlns="http://www.w3.org/2000/svg">
<g opacity="0.5">
<path fill-rule="evenodd" clip-rule="evenodd" d="M21.4998 11.09L20.5098 12.099L6.49982 12.09L5.49982 11.09L4.49982 2.09H1.49982C1.36382 2.11025 1.22499 2.09835 1.09442 2.05526C0.963857 2.01216 0.845211 1.93907 0.747988 1.84185C0.650765 1.74463 0.577703 1.62598 0.534609 1.49541C0.491515 1.36485 0.47957 1.226 0.499819 1.09C0.506359 0.941299 0.544159 0.795647 0.610781 0.662542C0.677402 0.529438 0.771299 0.411869 0.886415 0.317511C1.00153 0.223153 1.13528 0.154121 1.27887 0.11492C1.42246 0.0757184 1.5727 0.0672292 1.71979 0.0900022H4.16986C4.47986 0.0900022 4.79987 0.0959989 4.79987 0.0959989C5.10467 0.0536404 5.41439 0.123217 5.67182 0.29183C5.92924 0.460443 6.11682 0.71666 6.19977 1.013L6.6098 4.09H21.4998L22.4998 5.09V6.09L21.4998 11.09ZM6.73981 6.09L7.16986 10.085H19.8598L20.6799 6.085L6.73981 6.09ZM9.00983 14.079C9.70206 14.079 10.3787 14.2843 10.9543 14.6689C11.5299 15.0534 11.9784 15.6001 12.2433 16.2396C12.5083 16.8791 12.5776 17.5829 12.4426 18.2618C12.3075 18.9408 11.9742 19.5644 11.4847 20.0539C10.9952 20.5434 10.3716 20.8767 9.69269 21.0118C9.01376 21.1468 8.31001 21.0775 7.67047 20.8126C7.03093 20.5477 6.48426 20.0991 6.09967 19.5235C5.71509 18.9479 5.50983 18.2712 5.50983 17.579C5.5097 17.1195 5.60017 16.6645 5.77606 16.2401C5.95196 15.8156 6.20977 15.43 6.53485 15.1052C6.85994 14.7805 7.24592 14.5231 7.6706 14.3477C8.09527 14.1723 8.55035 14.0823 9.00983 14.083V14.079ZM17.9998 14.079C18.6925 14.077 19.3702 14.2806 19.9471 14.664C20.524 15.0474 20.9741 15.5933 21.2405 16.2327C21.507 16.872 21.5777 17.5761 21.4438 18.2557C21.3099 18.9353 20.9773 19.5598 20.4882 20.0503C19.9991 20.5408 19.3756 20.8751 18.6964 21.011C18.0171 21.1469 17.3129 21.0781 16.6728 20.8135C16.0327 20.5489 15.4854 20.1003 15.1004 19.5245C14.7154 18.9487 14.5098 18.2717 14.5098 17.579C14.5109 16.6532 14.8787 15.7655 15.5328 15.1102C16.1869 14.455 17.074 14.0856 17.9998 14.083V14.079ZM8.99982 16.085C9.29649 16.085 9.58652 16.173 9.83319 16.3378C10.0799 16.5026 10.2722 16.7369 10.3857 17.011C10.4992 17.2851 10.5289 17.5867 10.471 17.8776C10.4131 18.1686 10.2703 18.4359 10.0605 18.6457C9.85071 18.8554 9.58339 18.9983 9.29242 19.0562C9.00145 19.1141 8.69993 19.0843 8.42584 18.9708C8.15175 18.8573 7.91745 18.665 7.75263 18.4184C7.5878 18.1717 7.49982 17.8817 7.49982 17.585C7.50114 17.188 7.65982 16.8078 7.94098 16.5276C8.22214 16.2473 8.60286 16.09 8.99982 16.09V16.085ZM17.9998 16.085C18.2965 16.085 18.5865 16.173 18.8332 16.3378C19.0799 16.5026 19.2722 16.7369 19.3857 17.011C19.4992 17.2851 19.5289 17.5867 19.471 17.8776C19.4131 18.1686 19.2703 18.4359 19.0605 18.6457C18.8507 18.8554 18.5834 18.9983 18.2924 19.0562C18.0014 19.1141 17.6999 19.0843 17.4258 18.9708C17.1518 18.8573 16.9174 18.665 16.7526 18.4184C16.5878 18.1717 16.4998 17.8817 16.4998 17.585C16.5011 17.188 16.6598 16.8078 16.941 16.5276C17.2221 16.2473 17.6029 16.09 17.9998 16.09V16.085Z" fill="#222222"/>
</g>
</svg>
