<svg width="17" height="16" viewBox="0 0 17 16" fill="none" xmlns="http://www.w3.org/2000/svg">
<rect width="16" height="16" transform="translate(0.5)" fill="#222222"/>
<g clip-path="url(#clip0_1_627)">
<g clip-path="url(#clip1_1_627)">
<path fill-rule="evenodd" clip-rule="evenodd" d="M17.1737 15.0875L10.0863 8L17.1659 0.912497C17.3768 0.701528 17.4953 0.41543 17.4953 0.117121C17.4953 -0.181189 17.3768 -0.467286 17.1659 -0.678255C16.9673 -0.875757 16.701 -0.990362 16.4211 -0.998867H17.5V15.8761C17.4991 15.5806 17.3819 15.2973 17.1737 15.0875ZM-0.162514 -0.679371C-0.373419 -0.468402 -0.491898 -0.182305 -0.491898 0.116005C-0.491898 0.414315 -0.373419 0.700412 -0.162514 0.911381L6.91711 7.99887L-0.170376 15.0864C-0.377801 15.2961 -0.494559 15.5789 -0.495502 15.8739V-1H0.582256C0.302267 -0.99172 0.0359316 -0.877063 -0.162514 -0.679371ZM-0.170376 16.6794C0.0294902 16.877 0.296815 16.9916 0.577759 17H-0.5V15.8975C-0.497589 16.1905 -0.380941 16.471 -0.174873 16.6794H-0.170376ZM0.672241 -1H16.3278C16.0474 -0.991778 15.7807 -0.877134 15.5819 -0.679371L8.49437 6.40813L1.40688 -0.679371C1.21084 -0.874536 0.948645 -0.988969 0.672241 -1ZM16.3368 17H0.663246C0.943897 16.9917 1.21092 16.8771 1.41025 16.6794L8.49773 9.58512L15.5853 16.6794C15.7857 16.8782 16.0545 16.9929 16.3368 17ZM17.1737 16.6794C17.3816 16.4698 17.4988 16.187 17.5 15.8919V17H16.4267C16.7074 16.9917 16.9744 16.8771 17.1737 16.6794Z" fill="white"/>
</g>
</g>
<defs>
<clipPath id="clip0_1_627">
<rect width="16" height="16" fill="white" transform="translate(0.5)"/>
</clipPath>
<clipPath id="clip1_1_627">
<rect width="18" height="18" fill="white" transform="translate(-0.5 -1)"/>
</clipPath>
</defs>
</svg>
