<svg width="24" height="22" viewBox="0 0 24 22" fill="none" xmlns="http://www.w3.org/2000/svg">
<g opacity="0.5">
<path fill-rule="evenodd" clip-rule="evenodd" d="M21.498 10.77L12.1905 20.09H11.8085L2.55001 10.88C1.62244 10.0449 0.96899 8.94892 0.6754 7.73586C0.38181 6.5228 0.461792 5.24933 0.904851 4.08254C1.34791 2.91574 2.13335 1.91013 3.15812 1.19763C4.18289 0.48513 5.39911 0.0990341 6.64722 0.0899987C7.75558 0.0946933 8.84186 0.400367 9.79 0.974368C10.7382 1.54837 11.5126 2.36914 12.0305 3.349C12.6632 2.13722 13.6859 1.17398 14.9333 0.614725C16.1807 0.0554667 17.5802 -0.0671837 18.906 0.266567C20.2317 0.600318 21.4063 1.371 22.2402 2.45424C23.074 3.53748 23.5186 4.87009 23.5021 6.237C23.5013 7.09034 23.3227 7.93414 22.9776 8.71461C22.6325 9.49508 22.1286 10.1951 21.498 10.77ZM20.3309 9.262L12.1545 17.425H11.8385L3.74707 9.38L3.75707 9.371C3.16262 8.77485 2.75738 8.01649 2.59216 7.191C2.42693 6.36551 2.50906 5.50962 2.82826 4.73061C3.14747 3.9516 3.68953 3.28415 4.38651 2.81191C5.08348 2.33968 5.90435 2.08368 6.74622 2.076C7.39829 2.07794 8.04094 2.23166 8.6233 2.52499C9.20566 2.81833 9.71171 3.24321 10.1014 3.766L10.1134 3.756L10.1774 3.856C10.2544 3.963 10.3194 4.076 10.3854 4.19L12.0775 6.906L13.5566 4.444C13.6669 4.2161 13.7974 3.99856 13.9466 3.794L13.9826 3.734L13.9896 3.743C14.3768 3.22589 14.8787 2.80571 15.4559 2.51557C16.0331 2.22543 16.6698 2.07325 17.3158 2.071C18.1457 2.07813 18.9552 2.32845 19.6443 2.79097C20.3333 3.25349 20.8716 3.90791 21.1925 4.67323C21.5134 5.43855 21.6028 6.28116 21.4497 7.09677C21.2965 7.91238 20.9076 8.66518 20.3309 9.262ZM22.47 20.09H23.4701V21.09H22.47V20.09ZM22.47 20.09H23.4701V21.09H22.47V20.09Z" fill="#222222"/>
</g>
</svg>
