<svg viewBox="0 0 22 22" fill="none" xmlns="http://www.w3.org/2000/svg">
<path fill-rule="evenodd" clip-rule="evenodd" d="M18.5 21.59H3.5C2.70435 21.59 1.94127 21.2739 1.37866 20.7113C0.816053 20.1487 0.5 19.3856 0.5 18.59V11.59C0.5 10.7944 0.816053 10.0313 1.37866 9.46868C1.94127 8.90607 2.70435 8.59 3.5 8.59H4.5V6.59C4.5 4.9987 5.13211 3.47258 6.25732 2.34736C7.38254 1.22214 8.9087 0.59 10.5 0.59H11.5C13.0913 0.59 14.6175 1.22214 15.7427 2.34736C16.8679 3.47258 17.5 4.9987 17.5 6.59V8.59H18.5C19.2956 8.59 20.0587 8.90607 20.6213 9.46868C21.1839 10.0313 21.5 10.7944 21.5 11.59V18.59C21.5 19.3856 21.1839 20.1487 20.6213 20.7113C20.0587 21.2739 19.2956 21.59 18.5 21.59ZM15.5 6.59C15.5 5.52913 15.0785 4.51172 14.3284 3.76157C13.5782 3.01142 12.5609 2.59 11.5 2.59H10.5C9.43913 2.59 8.42178 3.01142 7.67163 3.76157C6.92149 4.51172 6.5 5.52913 6.5 6.59V8.59H15.5V6.59ZM19.5 11.59C19.5 11.3248 19.3947 11.0704 19.2072 10.8829C19.0196 10.6954 18.7652 10.59 18.5 10.59H3.5C3.23478 10.59 2.98038 10.6954 2.79285 10.8829C2.60531 11.0704 2.5 11.3248 2.5 11.59V18.59C2.5 18.8552 2.60531 19.1096 2.79285 19.2971C2.98038 19.4846 3.23478 19.59 3.5 19.59H18.5C18.7652 19.59 19.0196 19.4846 19.2072 19.2971C19.3947 19.1096 19.5 18.8552 19.5 18.59V11.59ZM11.5 15.49V17.09C11.5 17.2226 11.4473 17.3498 11.3535 17.4436C11.2597 17.5373 11.1326 17.59 11 17.59C10.8674 17.59 10.7403 17.5373 10.6465 17.4436C10.5527 17.3498 10.5 17.2226 10.5 17.09V15.49C10.1664 15.3721 9.88522 15.14 9.70618 14.8348C9.52714 14.5296 9.46177 14.1709 9.52161 13.8221C9.58144 13.4734 9.76267 13.157 10.0332 12.929C10.3037 12.7009 10.6462 12.5758 11 12.5758C11.3538 12.5758 11.6963 12.7009 11.9668 12.929C12.2373 13.157 12.4186 13.4734 12.4784 13.8221C12.5382 14.1709 12.4729 14.5296 12.2938 14.8348C12.1148 15.14 11.8336 15.3721 11.5 15.49Z" fill="currentColor"/>
</svg>
