<svg viewBox="0 0 9 13" fill="none" xmlns="http://www.w3.org/2000/svg">
<g clip-path="url(#clip0_1_516)">
<g clip-path="url(#clip1_1_516)">
<path fill-rule="evenodd" clip-rule="evenodd" d="M6.53002 8.408C7.2051 8.83809 7.90277 9.23166 8.62002 9.587C8.6973 9.61778 8.76733 9.66429 8.82568 9.72359C8.88402 9.78288 8.92939 9.85366 8.95892 9.93143C8.98844 10.0092 9.0015 10.0923 8.99722 10.1753C8.99293 10.2584 8.97139 10.3397 8.93401 10.414L8.81503 10.831C8.78502 10.9856 8.71729 11.1304 8.61785 11.2525C8.51841 11.3746 8.39033 11.4703 8.24502 11.531C7.77838 11.799 7.26659 11.9793 6.73501 12.063C5.28701 12.093 4.00701 10.884 3.11101 9.873C2.53914 9.23117 2.03108 8.53523 1.59402 7.795C1.1622 7.05488 0.804149 6.27413 0.525016 5.46399C0.0830163 4.19399 -0.340981 2.49799 0.409019 1.27799C0.750608 0.865794 1.16518 0.520031 1.63201 0.257997C1.75993 0.164388 1.90864 0.103204 2.06539 0.0796907C2.22214 0.0561776 2.38229 0.0710358 2.53204 0.122995L2.95904 0.229994C3.04163 0.238763 3.12161 0.263963 3.19433 0.304106C3.26704 0.344248 3.33101 0.398526 3.38244 0.463747C3.43387 0.528967 3.47175 0.603815 3.49383 0.683885C3.51591 0.763956 3.52174 0.847631 3.51101 0.929994C3.50401 1.85699 3.49003 2.52199 3.52203 3.28399C3.53403 3.59999 3.41003 3.64499 3.12203 3.75599L2.65502 3.93599C2.57916 3.94743 2.50652 3.97453 2.4417 4.01557C2.37688 4.0566 2.32129 4.11067 2.2785 4.17434C2.2357 4.23802 2.20665 4.3099 2.19314 4.38542C2.17963 4.46093 2.18197 4.53844 2.20003 4.613C2.54768 6.26718 3.42541 7.76282 4.70003 8.873C4.75636 8.92597 4.82291 8.96686 4.89562 8.99316C4.96833 9.01946 5.04565 9.03061 5.12283 9.02593C5.2 9.02124 5.27539 9.00083 5.34438 8.96593C5.41338 8.93103 5.4745 8.88239 5.52401 8.823L5.91503 8.516C5.94819 8.46805 5.99055 8.42719 6.03966 8.39579C6.08878 8.3644 6.14367 8.3431 6.2011 8.33314C6.25854 8.32318 6.31738 8.32475 6.3742 8.33778C6.43102 8.3508 6.48467 8.37501 6.53204 8.40899L6.53002 8.408Z" fill="currentColor"/>
</g>
</g>
<defs>
<clipPath id="clip0_1_516">
<rect width="9" height="12" fill="white" transform="translate(0 0.0599976)"/>
</clipPath>
<clipPath id="clip1_1_516">
<rect width="9" height="12" fill="white" transform="translate(0 0.0599976)"/>
</clipPath>
</defs>
</svg>
