<svg  viewBox="0 0 22 22" fill="none" xmlns="http://www.w3.org/2000/svg">
<rect width="21" height="21" transform="translate(0.5 0.59)" fill="currentColor"/>
<g clip-path="url(#clip0_1_582)">
<g clip-path="url(#clip1_1_582)">
<path fill-rule="evenodd" clip-rule="evenodd" d="M0.500108 0.589999H21.5001V21.59H0.500108V0.589999ZM21.2101 21.299C21.1171 21.3927 21.0065 21.4671 20.8846 21.5179C20.7628 21.5687 20.6321 21.5948 20.5001 21.5948C20.3681 21.5948 20.2374 21.5687 20.1156 21.5179C19.9937 21.4671 19.8831 21.3927 19.7901 21.299L15.1101 16.622C13.3028 18.0735 11.0084 18.7778 8.69798 18.5903C6.38759 18.4029 4.23667 17.3379 2.687 15.6141C1.13732 13.8902 0.306475 11.6385 0.36522 9.32122C0.423966 7.00397 1.36776 4.79718 3.00279 3.15409C4.63782 1.511 6.84004 0.556349 9.15697 0.486209C11.4739 0.416069 13.7296 1.23577 15.461 2.77695C17.1925 4.31813 18.2681 6.46379 18.4669 8.77323C18.6657 11.0827 17.9727 13.3806 16.5301 15.195L21.2101 19.873C21.3047 19.9661 21.38 20.077 21.4313 20.1994C21.4826 20.3219 21.5089 20.4533 21.5089 20.586C21.5089 20.7187 21.4826 20.8501 21.4313 20.9726C21.38 21.095 21.3047 21.2059 21.2101 21.299ZM9.50011 2.59C8.11564 2.59 6.76221 3.00054 5.61107 3.76971C4.45993 4.53888 3.56276 5.63213 3.03294 6.91121C2.50313 8.19029 2.36453 9.59776 2.63463 10.9556C2.90473 12.3135 3.57143 13.5608 4.5504 14.5397C5.52937 15.5187 6.77664 16.1854 8.13451 16.4555C9.49237 16.7256 10.8999 16.587 12.1789 16.0572C13.458 15.5273 14.5513 14.6301 15.3204 13.479C16.0896 12.3278 16.5001 10.9745 16.5001 9.59C16.5001 7.73348 15.7626 5.95301 14.4498 4.64025C13.1371 3.3275 11.3566 2.59 9.50011 2.59Z" fill="white"/>
</g>
</g>
<defs>
<clipPath id="clip0_1_582">
<rect width="21" height="21" fill="white" transform="translate(0.5 0.59)"/>
</clipPath>
<clipPath id="clip1_1_582">
<rect width="21" height="21" fill="white" transform="translate(0.5 0.59)"/>
</clipPath>
</defs>
</svg>
